<?xml version="1.0" standalone="no"?>
<!DOCTYPE svg PUBLIC "-//W3C//DTD SVG 20010904//EN"
 "http://www.w3.org/TR/2001/REC-SVG-20010904/DTD/svg10.dtd">
<svg version="1.0" xmlns="http://www.w3.org/2000/svg"
 width="100px" height="100px" viewBox="0 0 324 324"
 preserveAspectRatio="xMidYMid meet">
<metadata>
Created by potrace 1.8, written by Peter Selinger 2001-2007
</metadata>
<g transform="translate(0,324) scale(0.080000,-0.080000)"
fill="#000000" stroke="none">
<path d="M1900 3986 c0 -30 -5 -37 -42 -55 -39 -18 -120 -75 -173 -119 -11 -9
-24 -15 -28 -14 -5 1 -6 -2 -2 -8 3 -5 2 -10 -3 -10 -6 0 -13 -12 -17 -27 -5
-21 -8 -24 -15 -13 -7 12 -11 9 -19 -10 -5 -14 -10 -21 -10 -16 -1 4 -14 -6
-30 -23 -15 -16 -30 -29 -32 -26 -6 5 -94 -128 -91 -138 1 -4 -5 -10 -13 -13
-8 -4 -15 -11 -15 -17 0 -6 -6 -18 -14 -26 -20 -24 -69 -119 -91 -176 -20 -53
-26 -61 -124 -145 -95 -82 -221 -216 -221 -234 0 -4 -9 -16 -20 -28 -10 -11
-26 -36 -35 -55 -9 -19 -23 -37 -31 -40 -8 -3 -14 -10 -14 -17 0 -6 -8 -27
-19 -46 -22 -43 -49 -125 -53 -165 -4 -42 -24 -42 -109 0 -87 43 -85 41 -70
58 17 22 -13 41 -99 62 -41 10 -81 23 -89 29 -7 6 -19 11 -25 11 -6 0 -36 9
-67 19 -53 18 -58 18 -91 2 -20 -10 -46 -29 -59 -42 -23 -24 -24 -33 -24 -147
0 -70 -5 -131 -11 -142 -11 -20 -32 -171 -36 -255 -3 -87 14 -325 25 -352 9
-21 22 -30 56 -37 25 -5 49 -7 53 -5 5 3 54 -2 111 -10 162 -24 246 -28 401
-21 163 9 170 12 133 73 -57 90 -98 260 -99 404 0 65 6 79 30 71 27 -9 156
-74 170 -85 7 -6 32 -21 55 -33 103 -53 208 -112 278 -157 42 -26 81 -48 86
-48 6 0 16 -7 23 -15 7 -9 15 -13 18 -11 8 9 31 -21 28 -38 -1 -9 -14 -28 -28
-43 -54 -59 -86 -116 -102 -181 -15 -60 -15 -73 -2 -123 25 -97 52 -139 124
-196 22 -17 23 -23 15 -68 -6 -33 -5 -80 4 -140 7 -49 14 -99 15 -110 2 -11 8
-25 13 -31 11 -12 12 -58 2 -84 -34 -92 -68 -364 -57 -460 6 -52 2 -82 -11
-74 -5 3 -9 0 -9 -7 0 -7 -2 -10 -5 -7 -3 3 -16 -3 -28 -13 -12 -10 -42 -34
-65 -54 -24 -19 -40 -35 -36 -35 4 0 3 -5 -4 -12 -21 -21 -14 -57 13 -70 14
-6 25 -14 25 -17 0 -3 12 -6 28 -7 15 0 61 -4 102 -7 121 -10 458 -9 549 1 70
8 87 14 102 33 10 13 16 32 13 41 -10 35 -7 117 6 132 15 19 49 21 55 4 9 -25
11 -153 4 -175 -10 -27 -4 -29 116 -37 44 -4 91 -8 105 -10 184 -30 364 -41
536 -31 l121 7 11 32 c7 18 12 40 12 48 0 17 -143 118 -167 118 -31 0 -45 29
-38 78 10 71 16 92 26 87 8 -5 3 390 -5 404 -2 3 0 17 5 30 8 19 12 21 24 11
8 -7 15 -18 15 -25 0 -16 23 -25 63 -25 28 0 29 1 12 14 -20 14 -18 23 23 113
12 29 10 94 -4 81 -6 -7 -74 56 -74 68 0 10 136 35 155 28 6 -3 23 -23 38 -46
15 -23 27 -36 27 -28 0 7 -11 28 -25 46 -32 41 -31 48 4 73 27 19 28 23 20 68
-4 26 -13 63 -19 81 -7 18 -10 41 -7 52 3 13 0 20 -9 20 -8 0 -14 7 -14 15 0
8 -4 23 -9 33 -5 9 -19 50 -31 91 -23 78 -83 187 -129 237 -15 16 -34 40 -44
54 -9 13 -52 60 -94 103 -84 85 -86 96 -27 127 86 44 304 244 304 278 0 6 6
15 13 19 7 4 19 22 26 39 11 27 24 36 84 57 40 14 82 28 94 32 11 3 24 12 26
19 3 8 19 17 36 21 17 4 33 11 37 16 3 6 31 21 61 34 30 14 73 39 96 57 23 18
48 37 55 43 56 44 102 120 106 178 2 23 7 50 11 60 12 29 -40 117 -109 184
-117 115 -141 136 -191 166 -27 16 -59 37 -70 47 -11 10 -29 20 -40 22 -11 2
-19 10 -17 17 1 7 -2 10 -7 7 -9 -6 -42 5 -71 24 -36 23 -179 86 -173 76 3 -6
0 -5 -8 2 -8 7 -42 12 -90 12 -56 0 -80 4 -89 15 -15 18 -36 20 -45 4 -10 -14
-2 -20 37 -26 40 -6 57 -15 117 -60 80 -60 121 -97 121 -110 0 -7 4 -13 9 -13
11 0 61 -82 55 -92 -4 -6 -26 -5 -129 7 -22 3 -105 8 -185 11 l-145 5 -37 42
c-21 23 -40 49 -43 57 -5 13 -80 75 -150 124 -30 21 -12 30 70 34 61 3 73 7
68 19 -9 22 -141 13 -158 -11 -7 -8 -14 -13 -17 -11 -9 10 -144 7 -184 -4 -21
-5 -61 -12 -89 -15 -27 -3 -79 -10 -115 -16 -84 -13 -80 -13 -80 9 0 10 -7 22
-16 25 -28 11 -34 7 -24 -18 10 -27 -3 -46 -34 -46 -11 0 -33 -4 -50 -9 -17
-5 -70 -21 -118 -34 -101 -29 -103 -27 -81 58 7 28 13 51 13 53 0 1 -6 2 -13
2 -14 0 -47 -86 -47 -121 0 -21 -14 -29 -90 -54 -30 -9 -62 -21 -70 -26 -8 -5
-29 -16 -47 -25 -19 -9 -30 -21 -27 -29 5 -11 13 -10 44 6 35 19 69 30 98 31
6 1 12 5 12 8 0 4 12 10 28 13 15 3 35 9 45 12 14 6 16 4 10 -11 -4 -11 -17
-34 -30 -53 -12 -18 -25 -49 -28 -70 -4 -20 -11 -57 -18 -83 -11 -47 -5 -70
12 -52 5 5 15 38 22 74 7 36 19 73 27 83 8 9 12 17 8 17 -3 0 5 18 20 41 14
22 26 49 27 59 1 11 12 22 27 26 14 4 30 8 35 10 6 2 26 6 45 10 19 3 42 10
51 15 9 4 19 6 21 4 3 -3 24 2 48 10 68 24 68 24 69 -67 2 -119 4 -141 19
-157 16 -17 1 -31 -35 -31 -12 0 -25 -4 -28 -10 -3 -5 -14 -10 -24 -10 -18 0
-181 -52 -236 -75 -72 -30 -87 -35 -100 -35 -8 0 -42 -13 -75 -29 -33 -16 -60
-27 -60 -25 0 3 -10 -1 -22 -8 -13 -7 -26 -12 -30 -13 -3 0 -10 -4 -15 -8 -4
-5 -22 -15 -40 -22 -17 -7 -51 -28 -75 -45 -109 -78 -147 -96 -133 -62 4 9 8
26 10 37 12 90 18 109 53 185 23 49 91 130 109 130 13 0 34 24 37 42 6 35 50
118 62 118 10 0 13 7 8 24 -4 17 0 27 13 35 10 6 14 11 9 11 -8 0 36 65 58 85
6 6 26 33 45 60 33 48 66 83 125 132 14 13 26 20 26 16 0 -4 11 9 26 30 14 21
29 35 35 32 5 -4 9 1 9 10 0 8 7 18 15 21 8 4 13 10 10 15 -3 4 4 13 16 20
l22 12 -21 -37 c-12 -21 -22 -42 -22 -48 0 -6 -7 -16 -14 -22 -19 -14 -32 -66
-18 -66 6 0 14 10 18 23 4 12 9 24 13 27 7 5 21 31 53 91 11 21 25 39 32 39 6
0 22 12 36 27 l25 26 14 -76 c9 -55 17 -77 28 -77 9 0 11 5 7 12 -5 7 -7 25
-6 39 1 15 -5 34 -14 43 -8 9 -11 16 -5 16 6 0 11 11 11 25 0 34 15 32 102
-11 98 -48 119 -60 113 -66 -3 -3 1 -8 9 -11 18 -7 28 4 18 19 -4 5 -26 22
-50 38 -23 16 -41 31 -39 33 9 8 119 -21 212 -57 181 -70 455 -215 469 -247 5
-12 -45 -18 -112 -16 -7 1 -11 -4 -9 -11 2 -6 33 -12 76 -14 53 -2 71 0 66 9
-5 8 -1 9 14 4 13 -4 27 -1 36 8 15 15 3 27 -101 102 -15 11 -40 30 -55 43
-55 45 -385 186 -509 217 -9 2 -94 18 -110 20 -56 9 -84 22 -110 51 -39 45
-60 45 -60 0z m605 -532 c41 -26 72 -51 68 -57 -3 -5 -1 -7 5 -3 6 3 21 -8 33
-26 13 -18 26 -35 29 -38 7 -6 40 -58 40 -63 0 -2 -29 -5 -65 -6 -35 -1 -73
-4 -83 -6 -10 -1 -54 -6 -97 -9 -44 -4 -116 -15 -160 -26 -44 -10 -107 -21
-140 -24 -33 -4 -72 -9 -87 -12 -23 -5 -27 -1 -33 25 -3 17 -3 36 1 42 4 7 3
9 -4 5 -13 -8 -19 44 -14 121 3 37 9 53 20 58 26 10 170 39 257 51 22 4 42 8
44 10 2 2 28 4 57 4 46 0 64 -6 129 -46z m636 -20 c112 -45 192 -87 273 -146
44 -32 84 -58 89 -58 5 0 6 -7 3 -16 -3 -8 -2 -13 3 -10 12 8 111 -72 111 -90
0 -8 5 -14 12 -14 6 0 9 -3 6 -6 -4 -3 -35 8 -70 24 -36 16 -90 36 -121 43
-32 6 -57 17 -57 22 0 6 -3 8 -6 4 -3 -3 -18 -1 -32 3 -15 5 -45 14 -67 19
-32 8 -44 18 -60 48 -35 69 -134 183 -157 183 -5 0 -8 5 -8 10 0 15 10 13 81
-16z m-102 -259 c27 -16 -14 -25 -89 -20 -41 4 -77 8 -79 11 -2 2 -10 -1 -18
-7 -10 -9 -10 -15 -2 -25 9 -11 8 -18 -1 -29 -11 -14 -6 -54 6 -43 3 3 22 2
42 -3 20 -4 71 -11 112 -14 116 -10 107 -25 -11 -18 -100 6 -105 5 -105 -14 0
-18 9 -22 66 -28 36 -4 85 -8 110 -8 46 -1 62 -11 54 -32 -4 -9 -23 -8 -75 4
-60 13 -72 13 -84 0 -26 -25 -2 -38 89 -46 100 -9 89 1 115 -106 14 -58 14
-148 0 -202 -5 -22 -12 -48 -14 -59 -5 -23 -94 -166 -103 -166 -4 0 -18 -17
-30 -38 -27 -42 -133 -135 -159 -140 -10 -2 -28 -13 -40 -24 -12 -11 -26 -17
-32 -13 -6 3 -11 3 -11 -2 0 -22 -197 -103 -258 -106 l-47 -2 0 43 c0 23 -4
42 -8 42 -5 0 -5 5 -2 10 9 15 -40 12 -124 -9 -61 -14 -76 -22 -88 -45 -8 -15
-12 -38 -9 -51 5 -20 1 -23 -37 -29 -23 -3 -96 -3 -162 0 -155 7 -173 9 -182
17 -3 4 -18 7 -32 7 -27 0 -183 49 -191 61 -3 3 -15 9 -27 13 -13 4 -23 12
-23 17 0 6 -4 7 -10 4 -5 -3 -10 -1 -10 4 0 6 -5 11 -12 11 -12 0 -108 99
-108 111 0 3 -9 18 -20 32 -22 28 -56 27 -65 -2 -6 -21 -72 -27 -120 -11 -39
13 -119 95 -111 115 3 8 0 15 -6 17 -13 5 5 74 27 106 9 12 33 31 53 41 44 22
78 14 87 -22 5 -18 12 -23 26 -20 10 3 20 10 21 17 0 6 2 16 3 21 2 6 3 16 4
22 1 14 72 53 96 53 8 0 15 9 15 21 0 18 -4 20 -45 13 -55 -8 -59 0 -7 16 65
20 102 40 102 56 0 11 -10 14 -36 12 -19 -1 -38 -6 -40 -10 -7 -11 -34 -10
-34 1 0 5 36 23 80 42 70 29 79 35 66 47 -10 10 -23 12 -43 7 -15 -3 -28 -6
-28 -5 0 1 -23 -10 -51 -24 -29 -14 -60 -26 -70 -26 -17 0 -16 1 2 18 10 10
42 26 69 36 28 10 54 23 60 27 5 5 16 9 25 9 8 0 24 7 35 16 28 21 3 35 -39
22 -45 -13 -136 -38 -142 -38 -3 0 1 6 8 13 15 14 78 43 193 88 134 52 156 60
260 90 55 16 118 34 140 41 22 6 45 12 50 13 238 49 351 67 460 75 126 10 547
6 564 -5z m201 -20 c31 -6 118 -29 188 -49 76 -22 219 -91 253 -123 20 -19 29
-38 29 -59 0 -45 -45 -119 -98 -162 -25 -20 -52 -44 -61 -52 -9 -9 -39 -25
-66 -37 l-50 -22 -5 67 c-5 66 -33 142 -52 142 -5 0 -7 4 -4 8 2 4 -11 19 -31
32 -27 19 -47 24 -90 23 -43 -1 -55 2 -60 15 -2 9 -8 26 -13 37 -39 100 -48
127 -51 150 0 6 -5 18 -11 28 -9 18 -6 19 44 13 29 -3 64 -8 78 -11z m-310
-46 c0 -11 -21 -12 -45 -3 -12 5 -13 9 -5 14 15 9 50 1 50 -11z m140 -5 c0 -7
-6 -14 -14 -17 -17 -7 -110 16 -101 24 11 12 115 5 115 -7z m-1964 -145 c-8
-19 -21 -71 -30 -116 -15 -80 -32 -123 -49 -123 -4 0 -37 -30 -73 -67 -43 -45
-70 -82 -82 -115 -23 -65 -47 -65 -38 0 9 60 34 140 55 172 9 14 25 43 36 65
30 63 56 96 67 89 6 -4 8 -3 5 3 -4 6 12 30 34 54 22 24 47 54 56 67 23 33 36
13 19 -29z m2201 -105 c45 -22 63 -51 69 -111 8 -75 -38 -134 -114 -149 l-32
-6 0 88 c0 49 -3 113 -6 142 -7 52 -7 52 21 52 15 0 43 -7 62 -16z m-2029
-130 c-2 -47 -6 -88 -10 -91 -5 -2 -6 -9 -3 -14 4 -5 -10 -9 -29 -9 -53 0
-120 -36 -141 -77 -22 -41 -26 -53 -32 -115 -3 -27 -8 -48 -12 -48 -10 0 -123
68 -139 84 -10 10 -11 19 -4 32 6 11 16 34 23 52 11 30 82 102 100 102 4 0 25
17 46 38 36 35 58 52 139 107 60 41 65 37 62 -61z m-758 -87 c0 -8 -9 -22 -20
-32 -25 -22 -43 -86 -34 -120 3 -14 16 -32 27 -40 27 -19 14 -31 -18 -17 -34
16 -47 54 -39 116 5 36 15 59 35 78 30 30 49 36 49 15z m186 -142 c61 -30 162
-85 224 -122 62 -37 115 -68 119 -68 3 -1 26 -13 50 -29 25 -16 58 -35 75 -42
17 -8 40 -20 50 -27 77 -48 131 -79 196 -112 41 -21 78 -43 82 -49 4 -6 8 -8
8 -3 0 4 18 -4 40 -18 22 -14 44 -25 50 -25 6 0 24 -12 41 -27 17 -15 36 -28
42 -28 25 -2 86 -35 96 -52 6 -10 11 -15 11 -10 0 10 50 -23 50 -33 0 -4 -28
-13 -62 -19 -51 -9 -65 -8 -78 4 -9 8 -22 15 -28 15 -6 0 -15 6 -19 13 -4 6
-21 19 -38 27 -16 8 -78 44 -138 80 -59 36 -120 72 -135 80 -101 56 -142 83
-142 91 0 6 -5 7 -10 4 -6 -4 -34 8 -63 26 -28 18 -97 55 -152 84 -55 28 -125
67 -155 86 -30 19 -68 42 -85 51 -185 95 -223 124 -206 157 14 24 16 24 177
-54z m-328 -7 c17 -5 32 -14 32 -19 0 -6 -9 -7 -22 -3 -13 4 -38 10 -56 15
-34 7 -62 26 -62 40 0 5 17 2 38 -7 20 -9 52 -20 70 -26z m1037 -290 c8 -13
11 -24 6 -26 -16 -5 -51 18 -51 33 0 23 27 18 45 -7z m1327 -187 c-1 -7 2 -10
8 -6 14 9 42 -14 33 -28 -3 -5 -1 -7 4 -4 6 4 46 -31 89 -78 63 -67 91 -107
136 -197 104 -208 117 -248 83 -255 -11 -2 -57 -9 -103 -16 -69 -9 -85 -9 -96
4 -14 13 -29 61 -63 194 -8 33 -17 67 -20 75 -4 8 -7 21 -9 27 -11 53 -123
250 -146 256 -30 8 -22 -25 31 -122 54 -99 95 -204 106 -266 4 -22 6 -40 5
-40 -1 0 3 -13 9 -28 34 -90 53 -267 29 -267 -7 0 -37 22 -65 49 -29 27 -53
47 -53 44 0 -6 -46 28 -90 66 -19 17 -39 31 -43 31 -10 0 -90 62 -95 73 -2 4
-10 7 -18 7 -8 0 -17 7 -20 15 -4 8 -12 15 -19 15 -6 0 -31 14 -54 31 -35 25
-40 33 -31 45 7 8 16 14 21 14 5 0 19 10 30 21 18 18 20 29 15 67 -10 75 -58
111 -124 92 -24 -6 -40 -6 -46 0 -7 7 -4 10 7 10 33 0 17 16 -29 28 -31 8 -43
16 -38 25 4 6 4 9 0 5 -10 -8 -72 17 -69 29 3 8 14 9 118 13 85 2 88 2 81 -16
-3 -8 -2 -13 3 -9 5 3 20 -9 32 -27 42 -59 37 -59 129 0 48 30 91 64 96 76 6
14 31 28 74 43 70 23 97 24 92 4z m-207 -40 c3 -5 -9 -21 -27 -35 l-33 -25 -8
22 c-6 16 -3 25 9 34 21 15 50 17 59 4z m-2245 -21 c25 -6 148 -13 274 -15
l229 -4 15 -33 c8 -18 21 -47 30 -64 8 -17 12 -39 9 -48 -6 -15 -24 -16 -179
-12 -168 5 -283 16 -420 38 -75 12 -73 10 -84 102 l-7 59 44 -6 c24 -4 64 -11
89 -17z m1612 -6 c30 -16 33 -31 7 -47 -11 -7 -29 0 -67 28 -29 20 -52 39 -52
42 0 10 81 -7 112 -23z m238 -62 c45 -23 59 -37 78 -76 12 -26 23 -62 24 -79
1 -45 -13 -138 -20 -134 -4 2 -29 -21 -56 -50 -33 -35 -44 -53 -33 -53 25 0
90 -38 172 -102 6 -4 44 -30 86 -58 41 -28 84 -58 95 -68 10 -10 57 -43 104
-74 101 -66 121 -85 100 -98 -8 -5 -49 -12 -91 -16 -75 -6 -76 -7 -58 -25 18
-18 25 -39 14 -39 -9 0 -45 40 -45 51 0 5 -3 8 -7 6 -19 -11 -312 -17 -318 -7
-4 6 -11 37 -16 68 -18 114 -21 127 -28 135 -4 4 -14 5 -22 2 -10 -4 -15 -27
-16 -88 -4 -133 1 -127 -101 -129 -48 -1 -160 -1 -250 0 -200 2 -208 5 -217
95 -4 34 -5 85 -3 112 l3 50 75 5 c81 6 143 25 175 53 11 10 31 21 44 24 14 3
38 18 54 32 16 14 33 25 37 24 4 -1 7 5 6 15 -1 12 5 16 19 14 45 -8 132 -5
150 5 15 9 3 11 -55 10 -65 0 -75 2 -92 23 -10 13 -16 30 -14 37 3 8 1 11 -4
8 -6 -3 -10 -1 -10 5 0 5 -8 29 -19 53 -10 23 -23 67 -29 97 -24 119 -24 118
9 148 65 58 173 68 259 24z m-558 -35 c64 -36 73 -50 37 -58 -13 -3 -41 -13
-61 -22 -21 -9 -42 -17 -47 -17 -15 0 -19 -25 -7 -47 11 -20 11 -20 81 8 39
16 75 27 80 25 6 -2 12 -18 13 -36 1 -18 10 -56 18 -84 25 -82 57 -180 61
-193 6 -15 -75 -52 -125 -59 -17 -2 -54 4 -80 14 -104 40 -162 127 -162 245 0
37 4 75 9 85 4 9 17 35 27 57 18 37 82 116 94 115 3 -1 31 -15 62 -33z m779
-56 c52 -52 28 -131 -40 -131 -36 0 -40 5 -46 65 -2 26 -6 50 -9 52 -3 3 -1
14 5 24 15 28 56 23 90 -10z m-556 -53 c5 -24 9 -45 10 -48 1 -3 7 -25 14 -50
6 -25 18 -64 27 -86 16 -45 6 -87 -24 -99 -22 -8 -27 -1 -66 102 -28 75 -35
104 -32 150 2 45 7 58 22 64 35 14 41 9 49 -33z m490 -160 c17 -9 39 -25 49
-37 11 -12 25 -21 31 -21 7 0 18 -7 25 -15 7 -8 37 -27 67 -42 31 -16 58 -34
60 -40 3 -7 10 -13 15 -13 6 0 25 -12 42 -27 18 -16 49 -41 69 -57 20 -15 34
-33 30 -39 -3 -6 -1 -7 5 -3 7 4 24 -4 39 -18 15 -15 31 -26 35 -26 3 0 13 -6
20 -13 7 -7 28 -23 46 -36 19 -13 54 -43 79 -66 25 -24 60 -51 79 -61 39 -21
42 -32 15 -65 l-19 -24 -29 23 c-15 12 -54 39 -85 60 -32 20 -57 42 -58 48 0
7 -11 15 -25 18 -14 4 -34 14 -44 24 -36 34 -164 117 -175 114 -6 -2 -8 0 -4
4 4 4 -13 20 -39 36 -26 17 -81 56 -122 87 -42 32 -97 70 -123 85 -69 40 -74
50 -53 90 20 37 25 38 70 14z m844 -200 c18 -51 21 -105 6 -118 -8 -7 -15 -9
-15 -5 0 4 -7 2 -15 -5 -17 -14 -178 -21 -190 -8 -4 3 -9 33 -12 66 l-5 59 68
15 c38 9 88 16 112 17 35 1 44 -3 51 -21z m-989 -275 c0 -23 -4 -45 -10 -48
-5 -3 -10 -1 -11 4 -2 15 -1 77 0 99 3 36 21 -12 21 -55z m675 -78 c31 -24 33
-30 39 -103 14 -195 11 -360 -8 -380 -2 -2 -105 -3 -228 -2 -123 2 -253 3
-290 3 -38 0 -68 4 -68 8 0 4 -9 5 -20 2 -19 -5 -20 0 -20 70 0 59 4 78 16 85
9 5 15 12 15 15 -3 19 0 27 9 27 21 0 156 68 187 94 17 14 34 26 39 26 11 0
54 41 54 52 0 15 -23 8 -74 -24 -81 -49 -177 -101 -248 -133 -36 -16 -39 -16
-92 9 -30 14 -57 26 -61 26 -12 0 -161 74 -184 91 -24 20 -81 26 -81 10 0 -5
21 -19 48 -31 26 -13 107 -51 180 -86 l133 -64 -3 -88 -3 -87 -100 0 c-55 0
-104 3 -110 6 -5 4 -73 9 -150 13 -77 3 -171 12 -210 19 l-70 12 -2 60 c-1 32
2 66 7 75 5 9 11 44 15 78 3 34 14 85 23 114 l17 52 280 2 c328 1 618 12 694
25 29 5 57 7 61 4 5 -3 41 6 82 19 40 14 77 25 81 25 5 1 23 -10 42 -24z
m-1082 -495 c51 -5 146 -12 212 -15 66 -2 137 -9 157 -14 20 -5 39 -7 41 -4
12 11 13 -38 2 -54 -12 -16 -32 -18 -192 -19 -98 0 -182 2 -187 4 -5 3 -28 6
-52 8 -24 1 -67 6 -96 10 -29 4 -59 7 -66 7 -17 0 -45 54 -38 73 7 17 84 19
219 4z m1015 -31 l92 -3 0 -42 c0 -38 -3 -43 -30 -52 -28 -10 -214 -7 -231 3
-4 3 -76 7 -160 10 -201 8 -199 7 -199 49 0 19 5 36 10 38 11 3 354 1 518 -3z
m-938 -134 c14 -2 82 -4 152 -4 l126 -1 4 -51 c5 -74 -3 -86 -59 -94 -60 -8
-423 -14 -457 -8 -15 3 -28 15 -35 32 -8 22 -31 122 -31 137 0 5 235 -4 300
-11z m716 -24 c40 -4 126 -7 193 -6 77 0 121 -4 121 -10 0 -6 -17 -44 -39 -85
-41 -79 -54 -88 -111 -69 -14 4 -72 10 -130 13 -58 2 -121 7 -140 10 -19 4
-69 10 -110 14 -83 8 -87 12 -89 99 -1 40 0 42 32 45 40 4 180 -1 273 -11z"/>
<path d="M2554 2786 c-11 -29 1 -61 23 -64 31 -5 47 28 27 56 -17 25 -42 29
-50 8z"/>

<path d="M1933 2673 c-22 -8 -16 -61 8 -68 28 -9 42 6 34 38 -7 27 -22 37 -42
30z"/>

<path d="M1936 3693 c7 -36 9 -55 12 -128 1 -25 7 -35 18 -35 16 0 16 14 -1
155 -1 11 -3 26 -4 33 0 6 -8 12 -16 12 -13 0 -15 -7 -9 -37z"/>

<path d="M2285 3690 c-8 -12 48 -70 67 -70 8 1 4 8 -9 19 -13 11 -23 22 -23
26 0 14 -29 35 -35 25z"/>

<path d="M1679 3587 c-16 -56 -16 -57 4 -57 11 0 17 3 14 6 -3 4 -2 14 3 23 4
9 5 32 1 51 l-7 34 -15 -57z"/>

<path d="M2910 3545 c8 -9 29 -15 54 -15 l41 1 -40 14 c-54 20 -71 20 -55 0z"/>

<path d="M3182 988 c-7 -7 -12 -17 -12 -22 0 -13 -69 -61 -87 -61 -6 0 -15 -4
-19 -8 -4 -4 4 -7 17 -7 14 0 32 8 41 18 9 9 27 25 41 34 13 9 27 26 30 37 6
24 5 25 -11 9z"/>


</g>
</svg>
