<?xml version="1.0" standalone="no"?>
<!DOCTYPE svg PUBLIC "-//W3C//DTD SVG 20010904//EN"
 "http://www.w3.org/TR/2001/REC-SVG-20010904/DTD/svg10.dtd">
<svg version="1.0" xmlns="http://www.w3.org/2000/svg"
 width="100px" height="100px" viewBox="0 0 320 320"
 preserveAspectRatio="xMidYMid meet">
<metadata>
Created by potrace 1.8, written by Peter Selinger 2001-2007
</metadata>
<g transform="translate(0,320) scale(0.080000,-0.080000)"
fill="#000000" stroke="none">
<path d="M1011 3759 c-266 -53 -458 -279 -487 -573 -3 -33 -15 -76 -26 -97
-10 -21 -20 -50 -20 -66 -1 -22 -9 -32 -39 -46 -66 -31 -84 -124 -38 -192 33
-47 105 -69 150 -45 15 9 24 6 46 -14 14 -14 38 -28 52 -31 13 -3 45 -23 70
-44 25 -21 61 -48 79 -59 39 -23 40 -22 -56 -52 -64 -20 -76 -28 -90 -56 -11
-24 -37 -46 -91 -77 -149 -87 -249 -175 -291 -258 -15 -28 -18 -53 -16 -105 4
-78 28 -147 105 -308 48 -97 53 -105 83 -108 20 -2 32 -9 34 -20 1 -9 9 -30
17 -46 8 -17 11 -36 6 -44 -26 -47 41 -130 100 -123 26 3 26 3 23 -49 l-4 -53
45 -22 c25 -12 55 -23 66 -24 23 -1 25 -16 21 -122 -2 -33 -3 -69 -4 -80 0
-11 3 -44 7 -73 5 -33 4 -59 -3 -73 -16 -30 -22 -65 -23 -135 l0 -60 -46 -17
c-107 -38 -162 -143 -153 -286 4 -46 8 -55 34 -71 16 -9 50 -21 76 -25 26 -3
56 -8 67 -11 27 -5 304 -6 335 0 14 2 56 7 93 11 131 12 226 47 228 83 6 69 4
144 -4 180 -6 30 -5 47 3 57 7 8 10 22 6 30 -8 23 7 17 26 -9 13 -18 17 -48
19 -127 2 -129 10 -155 54 -169 93 -31 574 -36 674 -7 87 25 94 37 88 137 -9
162 -79 265 -199 294 -25 6 -54 56 -41 70 4 3 1 6 -5 6 -6 0 -29 36 -51 80
-31 63 -38 86 -33 112 12 61 5 126 -22 202 -14 42 -26 84 -26 93 0 9 16 30 35
47 36 31 54 79 35 91 -6 4 -7 11 -4 17 4 7 2 8 -4 4 -7 -4 -12 -1 -12 6 0 7
-20 60 -44 118 -23 58 -43 107 -43 110 -1 3 -10 37 -22 75 -11 39 -23 90 -25
114 -3 36 -2 41 13 35 104 -45 216 -77 311 -89 25 -4 56 -8 70 -10 14 -2 66
-6 115 -10 50 -3 98 -8 108 -11 28 -9 54 5 67 35 14 34 50 32 51 -3 2 -104 -4
-498 -10 -554 -1 -16 -139 -15 -181 0 -43 16 -78 17 -91 2 -14 -17 -15 -75 -5
-244 4 -69 9 -174 11 -235 6 -158 13 -211 41 -293 38 -114 90 -184 151 -201
40 -12 260 -11 353 1 111 15 167 68 184 173 22 141 25 187 31 500 7 345 13
327 -107 302 -45 -9 -105 -17 -131 -17 l-48 0 5 272 6 272 25 21 c14 11 27 32
29 46 1 15 10 34 19 43 26 26 30 55 13 81 -9 14 -22 25 -29 25 -6 0 2 8 18 18
41 25 56 45 52 70 -5 33 -27 52 -74 63 l-43 11 1 172 1 171 39 28 c73 53 119
205 113 371 -4 111 -3 111 -240 112 -202 2 -252 -4 -275 -33 -32 -38 -12 -244
34 -341 20 -43 89 -122 107 -122 6 0 10 -62 10 -154 0 -171 0 -171 -66 -156
-22 5 -88 16 -149 25 -188 28 -270 52 -400 120 -66 35 -149 75 -185 90 -36 15
-75 37 -88 48 -13 12 -40 27 -59 32 l-36 10 41 28 c23 15 64 55 91 90 71 89
107 120 130 112 11 -3 36 1 57 10 105 44 120 171 27 223 -25 14 -43 31 -43 41
0 9 -5 22 -10 27 -6 6 -12 30 -15 55 -16 133 -42 210 -101 299 -91 139 -222
229 -389 269 -86 21 -229 25 -304 10z m326 -45 c240 -65 405 -250 437 -492 5
-35 5 -35 -57 10 -22 15 -80 43 -130 62 -81 30 -137 45 -277 74 l-35 7 3 161
3 161 -118 -2 c-65 -1 -123 -3 -129 -4 -10 -1 -10 -25 0 -253 3 -74 4 -72 -64
-83 -112 -18 -231 -69 -347 -148 l-82 -56 4 37 c6 46 26 134 34 147 3 6 6 16
7 23 4 22 55 115 90 162 83 111 194 179 345 210 79 16 227 9 316 -16z m-95
-43 c17 -1 18 -37 9 -271 -1 -25 -2 -25 -94 -26 -51 -1 -95 3 -98 9 -4 5 -8
58 -8 116 -1 58 -3 119 -5 134 -2 20 2 31 15 35 15 6 119 8 181 3z m101 -335
c152 -24 358 -103 399 -153 8 -10 8 -14 1 -10 -10 6 -52 16 -143 32 -14 2 -50
9 -80 15 -102 19 -184 25 -355 24 -187 -1 -333 -25 -518 -84 -103 -33 -99 -24
23 49 114 68 234 111 368 130 55 8 247 6 305 -3z m107 -131 c19 -3 44 -8 55
-10 11 -1 55 -8 98 -15 91 -15 96 -21 100 -123 2 -60 3 -62 30 -65 18 -2 29 2
33 13 4 9 19 22 34 30 24 12 31 12 61 -3 57 -29 64 -92 15 -149 -19 -22 -32
-27 -67 -27 -24 0 -54 4 -66 8 -19 7 -24 4 -34 -20 -42 -113 -166 -228 -299
-277 -98 -37 -273 -53 -373 -34 -171 33 -320 126 -410 254 -23 34 -47 43 -47
18 0 -16 -39 -45 -67 -49 -19 -3 -61 12 -79 29 -59 56 -38 155 37 175 33 9 45
8 64 -4 14 -9 34 -16 45 -16 20 0 21 4 17 79 -2 44 -1 85 2 90 6 9 81 40 96
40 3 0 22 5 43 11 20 6 96 22 167 35 113 20 155 23 320 20 105 -2 206 -6 225
-10z m317 -60 c12 -3 26 -19 32 -38 11 -30 10 -33 -26 -63 -21 -18 -39 -31
-40 -31 -1 1 -2 25 -4 52 -1 28 -6 60 -11 73 -9 25 -11 24 49 7z m-1193 -114
l7 -73 -23 16 c-12 9 -30 16 -40 16 -21 0 -22 10 -7 63 6 24 18 41 32 46 12 5
23 8 23 7 1 0 5 -34 8 -75z m2218 20 c49 -2 59 -24 57 -124 -5 -217 -63 -322
-191 -346 -53 -9 -129 10 -175 45 -70 53 -113 174 -113 320 0 80 1 82 28 92
15 6 43 13 62 14 29 3 232 2 332 -1z m-1258 -549 c15 -38 35 -113 46 -168 17
-90 22 -126 35 -249 3 -22 7 -126 11 -232 l7 -192 -28 -11 c-16 -6 -32 -7 -35
-3 -4 4 -11 107 -14 228 -3 121 -8 234 -10 250 -2 17 -6 62 -10 100 -11 102
-42 237 -65 283 -15 29 -17 42 -8 51 26 26 45 11 71 -57z m58 41 c45 -52 89
-217 135 -503 4 -25 8 -98 8 -162 0 -110 1 -116 16 -97 16 21 16 21 22 -11 8
-40 5 -46 -41 -69 -80 -40 -77 -43 -78 72 -1 109 -12 329 -19 381 -2 17 -7 54
-10 81 -10 90 -36 203 -60 265 -22 55 -22 60 -6 60 10 0 25 -8 33 -17z m1042
6 c27 1 52 4 57 7 4 2 7 -81 6 -186 -1 -104 -3 -190 -5 -190 -1 0 -20 18 -40
40 -28 28 -49 41 -79 46 l-41 6 3 137 c2 75 3 140 4 144 1 5 11 5 24 1 12 -4
44 -6 71 -5z m-1743 -39 c23 -45 65 -191 73 -255 30 -234 35 -295 41 -517 l5
-158 -29 0 c-17 0 -32 4 -35 8 -2 4 -7 100 -11 212 -3 113 -8 225 -10 250 -10
103 -17 166 -20 190 -2 14 -7 45 -10 70 -3 25 -15 77 -27 115 -11 39 -19 72
-18 74 1 2 -4 7 -11 11 -17 11 -3 42 18 38 9 -2 24 -19 34 -38z m70 -16 c36
-49 151 -159 175 -168 8 -3 14 -11 15 -18 1 -7 2 -24 4 -38 3 -30 15 -209 20
-305 8 -139 16 -261 21 -322 l5 -63 -86 0 -85 0 -1 118 c0 135 -6 263 -13 342
-3 30 -8 82 -12 115 -13 135 -43 258 -89 368 -14 33 11 17 46 -29z m-147 -10
c35 -72 66 -224 81 -389 14 -171 23 -481 14 -497 -6 -10 -24 -9 -116 7 -48 8
-48 9 -28 45 16 29 20 100 5 100 -5 0 -10 5 -10 11 0 6 -9 22 -19 35 -11 14
-18 35 -16 47 2 12 6 51 10 86 4 41 13 74 28 95 25 36 26 38 43 130 20 114 0
208 -64 294 -20 28 -29 33 -51 27 -21 -5 -24 -4 -13 7 15 15 93 48 107 44 6
-1 19 -20 29 -42z m586 41 c0 -26 -114 -185 -132 -185 -5 0 -7 -3 -5 -7 3 -5
8 -56 12 -116 3 -59 8 -120 10 -135 2 -15 6 -72 9 -127 4 -55 9 -116 11 -135
2 -19 7 -80 11 -135 3 -55 7 -116 9 -135 2 -19 6 -80 10 -135 4 -55 8 -112 9
-127 2 -14 0 -31 -3 -36 -9 -16 -69 -22 -80 -8 -5 6 -12 66 -15 131 -3 66 -6
120 -6 120 -1 0 -3 25 -5 55 -2 30 -6 100 -10 155 -11 144 -13 178 -20 295 -3
58 -7 130 -10 160 -2 30 -4 83 -6 118 -1 34 -4 60 -7 57 -9 -9 -89 55 -146
115 -31 34 -56 64 -54 65 11 11 106 -19 123 -38 11 -12 38 -36 60 -54 30 -23
45 -29 61 -22 22 8 66 60 77 91 7 20 97 50 97 33z m58 -52 c49 -137 68 -302
77 -654 l5 -187 -43 -11 c-24 -6 -68 -13 -98 -17 -49 -6 -55 -4 -55 12 0 11
-4 62 -8 114 -4 52 -9 124 -11 160 -9 118 -16 214 -20 265 -17 181 -18 166 23
210 44 46 92 124 92 148 0 35 18 15 38 -40z m-188 19 c0 -4 -12 -23 -27 -41
l-28 -33 -47 37 c-27 20 -48 38 -48 40 0 3 34 5 75 5 41 0 75 -4 75 -8z m414
-3 c24 -11 24 -12 8 -45 l-16 -34 -13 38 c-20 57 -19 59 21 41z m186 -94 c0
-3 -10 -20 -22 -38 -13 -18 -24 -34 -25 -36 -5 -9 -123 65 -123 77 0 8 7 26
16 42 l17 27 68 -33 c38 -19 69 -36 69 -39z m-1152 43 c19 -19 14 -34 -14 -47
-22 -10 -30 -9 -45 5 -25 23 -24 28 9 41 37 15 36 15 50 1z m-68 -68 c0 -3
-29 -25 -65 -48 -54 -34 -70 -40 -89 -32 -13 5 -27 13 -30 18 -3 4 29 29 71
55 72 44 78 45 95 30 10 -9 18 -19 18 -23z m122 -36 c24 -68 24 -140 -1 -153
-16 -9 -19 -4 -30 43 -7 29 -21 70 -31 91 -20 40 -19 55 6 55 8 0 14 5 14 11
0 27 27 -2 42 -47z m1210 10 l67 -28 -21 -35 c-12 -20 -22 -37 -24 -39 -1 -2
-21 2 -43 8 -26 7 -39 15 -35 22 4 7 3 8 -4 4 -15 -9 -72 21 -72 38 0 20 41
68 54 62 6 -3 41 -17 78 -32z m-178 -69 c-3 -11 -16 -55 -27 -97 -11 -43 -23
-78 -27 -78 -5 0 -13 26 -19 58 -6 31 -16 80 -22 107 -6 28 -13 62 -15 77 l-5
28 61 -38 c50 -30 59 -41 54 -57z m-1111 28 c17 -39 37 -110 37 -129 0 -7 -21
-25 -47 -42 l-46 -30 -33 65 c-18 36 -41 71 -51 78 -21 15 -20 17 44 61 62 43
76 42 96 -3z m1457 -9 c87 -17 110 -21 115 -15 3 3 -3 -15 -13 -39 -21 -49
-26 -50 -107 -36 -123 21 -126 24 -95 74 17 28 25 33 48 28 15 -4 38 -9 52
-12z m-1674 -18 c19 -14 19 -15 -5 -40 -13 -14 -28 -23 -33 -20 -5 3 -7 2 -6
-3 2 -4 -9 -24 -25 -44 -15 -20 -33 -52 -39 -72 -15 -41 -17 -42 -58 -33 -39
7 -40 37 -2 97 35 55 111 129 132 129 9 0 25 -6 36 -14z m1440 -31 c48 -21 78
-39 75 -47 -2 -7 -10 -49 -19 -93 -8 -44 -17 -82 -18 -84 -2 -2 -42 11 -89 29
l-85 33 6 36 c9 54 41 161 49 161 1 0 37 -16 81 -35z m461 10 l43 -7 -15 -28
c-8 -16 -15 -36 -15 -45 0 -8 -7 -15 -15 -15 -15 0 -118 21 -123 25 -3 3 25
69 34 77 4 4 17 6 28 4 12 -2 40 -7 63 -11z m-1791 -99 c30 -62 32 -86 7 -64
-35 30 -47 31 -25 3 l23 -29 -21 -8 c-19 -7 -125 -13 -172 -9 -10 0 -18 7 -18
14 0 25 43 93 88 139 l46 48 24 -23 c13 -12 35 -44 48 -71z m2026 66 c33 -19
60 -79 47 -104 -15 -27 -55 -22 -87 12 -16 17 -33 30 -38 30 -4 0 -3 -5 4 -12
21 -21 13 -46 -25 -79 -21 -17 -32 -28 -25 -25 14 8 14 8 16 -66 2 -70 -9 -74
-74 -27 l-43 31 7 71 c9 94 25 145 50 160 67 38 113 41 168 9z m-395 -56 c2
-1 -3 -34 -10 -72 -7 -38 -13 -78 -12 -89 0 -35 -1 -35 -180 0 -11 2 -24 4
-28 4 -11 1 -1 80 18 147 l14 50 98 -19 c54 -11 99 -20 100 -21z m553 18 c31
-13 40 -21 40 -41 0 -18 -9 -28 -35 -39 -50 -21 -85 -10 -85 27 0 18 7 32 20
39 11 6 18 15 15 21 -8 13 -2 12 45 -7z m-1994 -70 c-8 -41 -13 -41 -20 1 -3
17 -1 32 6 37 18 11 21 3 14 -38z m1574 26 c21 -6 25 -12 22 -41 -1 -19 -4
-43 -7 -54 -2 -11 -4 -37 -4 -57 -1 -29 -5 -36 -18 -34 -10 2 -42 7 -70 11
-29 4 -54 11 -54 16 -3 23 -3 38 4 91 11 86 13 89 61 81 22 -3 52 -9 66 -13z
m-1619 -22 c1 -7 2 -25 3 -40 3 -33 -1 -40 -42 -64 -29 -16 -34 -17 -42 -4
-12 18 -13 51 -2 65 9 14 65 54 75 55 4 0 7 -6 8 -12z m1921 -39 l33 12 -34
-28 c-24 -21 -32 -35 -30 -53 3 -14 -3 -32 -13 -42 -29 -29 -23 -70 15 -95 18
-13 40 -23 48 -23 16 0 17 -46 4 -465 -6 -224 -8 -248 -25 -347 -24 -143 -63
-188 -95 -112 -26 63 -30 155 -28 647 l2 478 22 18 c18 14 28 16 45 9 16 -7
33 -7 56 1z m106 -42 c28 -13 29 -52 1 -67 -43 -23 -122 13 -112 51 10 36 56
43 111 16z m-2434 3 c23 -9 26 -15 26 -63 0 -30 6 -75 14 -100 13 -43 13 -47
-3 -47 -20 0 -34 27 -62 115 -21 66 -24 105 -10 105 5 0 21 -4 35 -10z m1521
-9 c27 -11 65 -25 83 -31 28 -11 32 -17 32 -51 l0 -38 -38 13 c-110 39 -140
57 -144 87 -7 46 -3 47 67 20z m-1237 -108 c11 -21 9 -24 -25 -41 -47 -24 -96
-40 -144 -47 -34 -6 -37 -4 -48 27 -7 18 -15 63 -18 100 l-6 66 69 -2 c38 -1
87 1 109 4 l40 5 5 -45 c3 -25 11 -55 18 -67z m36 20 c4 -13 3 -23 -2 -23 -13
0 -32 56 -31 89 0 24 2 23 13 -9 7 -19 16 -45 20 -57z m68 15 c-5 -72 -7 -74
-29 -32 l-22 40 27 17 c15 9 27 17 27 17 0 0 -1 -19 -3 -42z m1383 8 c44 -8
83 -12 88 -9 4 2 7 1 8 -4 0 -4 2 -23 5 -40 4 -38 8 -37 -103 -22 -97 13 -113
22 -113 59 0 35 0 35 115 16z m610 -25 c47 -11 44 -57 -5 -64 -51 -9 -105 44
-76 73 6 6 20 8 31 5 11 -4 33 -10 50 -14z m-387 -5 c39 -4 38 -3 45 -43 l6
-33 -62 6 c-83 7 -84 7 -89 48 -4 34 -4 35 32 30 19 -3 50 -6 68 -8z m95 -10
c19 -15 23 -51 6 -62 -16 -9 -28 7 -33 44 -4 35 0 38 27 18z m-1734 -48 c12
-24 23 -68 16 -68 -6 0 -45 67 -45 79 0 19 16 12 29 -11z m-16 -122 c-19 -27
-144 -96 -172 -96 -16 0 -28 19 -61 101 l-19 47 42 6 c52 8 155 45 164 59 3 5
19 -14 35 -42 29 -50 29 -51 11 -75z m-257 7 c10 -27 24 -57 31 -68 15 -23 17
-45 3 -45 -10 0 -61 95 -74 138 -5 16 -3 22 7 22 9 0 23 -20 33 -47z m344 -69
c0 -12 -14 -40 -31 -64 -33 -46 -79 -141 -79 -165 0 -20 -28 -45 -51 -45 -26
0 -69 44 -69 71 0 16 4 20 17 14 47 -18 50 -12 13 25 -22 22 -40 45 -40 52 0
7 -3 23 -6 34 -5 17 0 23 23 28 51 13 135 68 162 107 l26 38 17 -37 c10 -20
18 -46 18 -58z m1060 -35 c0 -37 -183 -113 -345 -143 -49 -10 -95 -19 -101
-21 -6 -1 -11 14 -13 36 -1 21 -1 39 1 39 7 1 155 29 181 35 48 10 191 65 222
85 28 19 31 19 43 3 6 -9 12 -25 12 -34z m53 -121 c20 -46 37 -89 37 -96 0
-44 -159 -116 -300 -138 -19 -3 -43 -7 -53 -10 -10 -3 -32 -7 -50 -10 -18 -2
-53 -6 -79 -9 -36 -5 -48 -3 -48 7 -3 58 -11 165 -15 175 -5 14 11 20 52 19
17 -1 29 2 27 5 -2 4 13 9 34 13 71 12 89 16 148 35 73 23 171 68 179 81 15
24 33 4 68 -72z m-1053 43 c70 -15 186 -25 293 -25 103 0 99 2 101 -51 1 -19
-5 -20 -124 -19 -69 0 -149 3 -178 6 -85 10 -202 41 -202 53 0 22 32 56 48 51
10 -3 37 -10 62 -15z m-35 -85 c104 -26 117 -27 278 -33 l157 -6 0 -31 c1 -17
3 -64 6 -103 5 -63 4 -74 -12 -80 -22 -8 -233 -8 -304 1 -129 16 -222 39 -245
62 -8 9 -13 25 -11 37 3 12 7 42 11 67 9 70 27 111 45 106 8 -3 42 -12 75 -20z
m1058 -193 c3 -21 15 -65 27 -97 18 -51 21 -72 15 -137 -7 -80 0 -143 15 -134
5 3 12 -4 15 -16 4 -12 18 -37 31 -56 38 -56 33 -73 -21 -74 -25 -1 -48 -2
-52 -3 -5 -1 -32 -6 -62 -10 -41 -6 -73 -21 -135 -64 -85 -58 -144 -82 -186
-76 -77 11 -83 20 -85 124 -5 208 -27 315 -80 384 -29 39 -34 41 -88 44 -31 2
-57 -1 -57 -6 0 -4 10 -8 23 -9 55 -1 66 -4 88 -27 19 -20 24 -37 25 -83 1
-32 5 -74 10 -93 8 -33 8 -61 3 -170 -1 -25 5 -67 13 -95 25 -82 1 -100 -127
-98 -91 1 -159 22 -232 70 -56 36 -61 38 -136 36 -75 -1 -77 0 -83 24 -4 14
-1 57 6 96 12 67 13 69 26 46 17 -31 17 -10 0 61 -7 30 -12 75 -11 100 1 25 3
79 4 121 l1 77 43 -11 c23 -6 151 -11 285 -11 205 -1 245 1 255 14 14 17 9 16
97 25 80 8 215 37 295 63 33 11 63 20 66 21 4 1 9 -16 12 -36z m1128 -15 c3
-42 -1 -362 -6 -493 -10 -266 -39 -375 -107 -408 -63 -30 -390 -43 -438 -17
-47 25 -81 73 -115 163 -33 88 -39 140 -50 402 -2 66 -7 175 -11 243 -7 139
-12 134 82 106 32 -9 80 -14 115 -12 34 2 59 -1 60 -7 3 -25 8 -98 14 -183 7
-102 25 -174 51 -203 64 -71 120 55 139 310 3 41 6 76 8 77 1 1 27 4 57 5 30
2 84 11 120 20 83 23 80 23 81 -3z m-1606 -330 l5 -53 -14 50 c-8 28 -15 61
-15 75 0 25 0 25 9 3 5 -13 12 -46 15 -75z m13 -203 l0 -70 -17 50 c-13 39
-15 59 -7 89 8 33 11 36 17 20 4 -10 8 -50 7 -89z m649 -4 c95 -26 162 -104
179 -209 6 -38 5 -40 -27 -50 -97 -29 -173 -37 -364 -37 -170 1 -364 25 -366
46 -1 5 -2 32 -2 61 l-1 52 51 -3 c60 -3 108 15 177 68 71 53 89 62 170 76 78
13 124 12 183 -4z m-1051 -102 c98 -53 156 -68 265 -66 48 1 90 -1 92 -3 3 -3
8 -26 11 -52 6 -46 6 -47 -26 -57 -117 -38 -390 -58 -548 -39 -214 25 -210 24
-201 75 22 115 111 174 279 182 46 2 63 -4 128 -40z m1242 -210 c-2 -39 -5
-43 -46 -60 -24 -11 -78 -22 -120 -26 -191 -17 -561 2 -589 30 -2 3 -7 23 -10
45 l-5 40 63 -14 c157 -36 526 -27 664 15 46 14 46 14 43 -30z m-868 -19 c0
-31 -27 -56 -71 -66 -145 -30 -176 -34 -349 -38 -158 -4 -240 3 -332 28 -21 6
-28 16 -33 48 -4 21 -5 42 -2 44 3 3 31 1 63 -5 197 -37 515 -33 674 8 19 5
38 9 43 10 4 1 7 -12 7 -29z"/>
<path d="M1200 3093 c0 -6 12 -35 28 -64 39 -75 38 -141 -2 -176 -38 -32 -95
-27 -137 12 -23 23 -27 24 -23 9 7 -28 65 -64 102 -64 96 0 141 94 92 191 -32
62 -60 105 -60 92z"/>
<path d="M1416 3085 c-8 -22 -7 -67 2 -81 4 -6 17 -14 28 -18 30 -9 50 44 31
83 -14 30 -51 40 -61 16z"/>
<path d="M850 3061 c-22 -41 -4 -101 29 -101 33 0 47 73 21 105 -17 21 -37 19
-50 -4z"/>
<path d="M1796 2974 c-9 -8 -13 -20 -10 -25 3 -6 11 -4 17 4 18 22 44 27 57
11 18 -21 32 -17 20 6 -13 24 -62 27 -84 4z"/>
<path d="M469 2913 c-14 -3 -39 -42 -39 -59 0 -3 14 6 31 20 25 21 34 24 51
15 25 -14 34 -6 12 12 -18 14 -31 17 -55 12z"/>
<path d="M1019 2732 c5 -10 29 -32 52 -48 36 -24 53 -29 111 -31 76 -2 115 13
148 54 27 35 19 41 -13 9 -27 -27 -83 -46 -138 -46 -39 0 -138 45 -146 66 -3
8 -9 14 -14 14 -6 0 -6 -7 0 -18z"/>
<path d="M2523 2959 c-25 -8 -30 -36 -21 -98 11 -71 43 -126 84 -146 47 -22
73 -19 104 15 31 33 37 54 46 151 6 64 5 67 -17 75 -28 9 -171 12 -196 3z
m188 -31 c17 -168 -79 -264 -151 -151 -28 43 -48 132 -35 153 9 15 185 13 186
-2z"/>
</g>
</svg>
