<?xml version="1.0" standalone="no"?>
<!DOCTYPE svg PUBLIC "-//W3C//DTD SVG 20010904//EN"
 "http://www.w3.org/TR/2001/REC-SVG-20010904/DTD/svg10.dtd">

<svg version="1.0" xmlns="http://www.w3.org/2000/svg"
 width="100px" height="100px" viewBox="0 0 320 320"
 preserveAspectRatio="xMidYMid meet">

<metadata>
Created by potrace 1.8, written by Peter Selinger 2001-2007
</metadata>
<rect x="0" y="0" width="320px" height="320px" style="fill:#D3D3D3;"/>

<g transform="translate(0,273) scale(0.080000,-0.080000)"
fill="#000000" stroke="none">
<path d="M1932 3340 c-29 -3 -56 -11 -60 -17 -4 -6 -34 -11 -69 -11 -71 0
-101 -16 -153 -83 -42 -52 -83 -169 -83 -236 -1 -41 6 -62 30 -101 26 -42 28
-51 17 -67 -13 -18 -13 -27 0 -77 6 -19 17 -29 39 -34 39 -8 57 -21 57 -42 0
-9 10 -35 21 -59 12 -24 20 -45 18 -46 -2 -2 -25 -20 -52 -41 -42 -33 -53 -37
-95 -35 -89 5 -164 51 -203 124 -15 27 -31 45 -41 45 -27 0 -22 34 11 69 16
17 27 31 24 31 -3 0 0 7 7 15 8 10 29 14 67 13 61 -2 75 9 64 51 -6 20 -14 26
-37 27 -36 1 -90 28 -103 52 -16 31 -6 127 17 160 65 91 50 107 -96 99 -159
-8 -180 -23 -111 -79 99 -81 109 -92 113 -133 6 -47 5 -49 -55 -97 -38 -30
-53 -36 -80 -33 -106 13 -126 32 -123 110 3 57 11 95 26 114 43 53 48 86 16
97 -57 19 -210 6 -236 -20 -13 -12 14 -42 97 -109 16 -13 21 -27 20 -55 -1
-20 2 -49 6 -65 6 -24 2 -32 -34 -65 -33 -30 -48 -37 -70 -34 -26 4 -29 1 -33
-32 -6 -51 2 -58 58 -53 42 3 50 1 59 -17 5 -12 41 -37 79 -56 l68 -35 25 -75
c13 -41 25 -81 25 -87 1 -7 5 -13 9 -13 4 0 10 -15 14 -32 14 -67 93 -171 171
-225 68 -47 215 -72 296 -50 32 8 33 5 43 -103 10 -103 22 -134 78 -192 9 -10
17 -21 17 -25 1 -5 3 -25 6 -45 4 -27 0 -47 -14 -70 -20 -34 -28 -59 -37 -124
-4 -21 -17 -88 -30 -149 -14 -60 -27 -126 -30 -145 -3 -19 -8 -42 -10 -50 -8
-30 -16 -97 -20 -157 -3 -61 -3 -63 32 -93 l35 -31 -17 -46 c-25 -64 -137
-282 -187 -361 -43 -68 -65 -97 -105 -138 -12 -12 -31 -37 -43 -56 -11 -18
-23 -32 -27 -32 -10 2 -13 1 -85 -20 -45 -13 -66 -27 -101 -66 -68 -75 -70
-132 -8 -165 29 -14 155 -15 211 0 14 3 83 6 154 6 71 0 134 4 140 8 6 5 26
11 45 13 19 2 38 11 42 19 4 8 30 59 57 114 27 55 67 134 87 175 53 106 57
116 132 340 64 191 63 190 84 190 30 0 34 -16 45 -183 11 -170 8 -244 -17
-337 -12 -47 -23 -96 -24 -110 -1 -14 -3 -29 -4 -35 0 -5 -20 -22 -44 -37 -65
-41 -106 -91 -113 -137 -8 -51 5 -68 59 -76 74 -11 372 -12 435 -2 54 9 62 13
71 38 5 16 14 29 19 29 10 0 28 68 22 85 -6 20 0 109 9 139 13 39 3 407 -14
544 -2 15 -7 101 -10 192 -4 91 -9 167 -11 169 -11 11 22 31 52 31 36 0 41 4
48 43 2 15 7 31 11 36 9 16 20 129 19 206 -1 103 -14 194 -37 262 -12 37 -11
41 33 123 44 83 45 88 45 175 0 85 -2 94 -38 165 -147 287 -288 426 -440 434
-28 1 -52 7 -55 14 -2 6 15 29 36 51 49 47 62 103 39 168 -13 37 -12 45 4 80
29 60 23 104 -21 153 -12 14 -33 41 -46 60 -31 47 -73 93 -105 113 -30 20 -66
25 -137 17z m138 -53 c15 -12 43 -44 64 -72 20 -27 50 -65 66 -84 29 -33 34
-46 31 -86 -3 -31 -31 -86 -41 -80 -4 3 -22 -7 -39 -21 -30 -25 -31 -25 -31
-5 0 14 -6 21 -19 21 -22 0 -59 42 -67 77 -4 12 -10 23 -15 23 -5 0 -9 6 -9
13 0 23 -32 45 -85 58 -27 7 -53 17 -57 23 -4 6 -6 37 -4 70 2 45 8 61 22 70
53 31 142 28 184 -7z m-231 -84 c0 -70 -6 -95 -21 -81 -2 2 -17 -10 -35 -26
-26 -23 -34 -40 -44 -100 -13 -79 -34 -132 -54 -140 -16 -6 -59 30 -70 59 -15
38 -17 50 -17 92 1 41 37 163 51 173 4 3 20 23 36 44 34 44 75 66 122 64 l32
-2 0 -83z m-485 -75 c-14 -47 -18 -48 -53 -21 -37 29 -29 43 27 43 30 0 33 -2
26 -22z m56 12 c0 -5 -11 -29 -25 -54 -21 -37 -25 -58 -25 -121 0 -71 2 -76
25 -87 27 -12 25 -29 -4 -23 -10 2 -35 0 -55 -5 -48 -11 -53 2 -12 31 19 13
33 26 30 30 -2 4 -6 31 -9 60 -4 43 -11 58 -31 73 -35 26 -94 82 -94 90 0 16
22 2 70 -45 42 -40 54 -48 66 -38 8 6 14 17 14 24 0 19 30 75 41 75 5 0 9 -4
9 -10z m-375 -12 c9 -9 -4 -48 -16 -48 -15 0 -52 38 -46 47 7 10 52 11 62 1z
m-68 -40 c24 -24 50 -43 56 -43 7 0 21 19 31 43 11 23 23 42 27 42 11 0 0 -29
-24 -64 -17 -24 -20 -44 -19 -115 0 -47 1 -89 1 -94 1 -4 13 -12 27 -18 36
-13 29 -17 -46 -23 l-65 -6 28 21 28 21 -6 92 c-5 68 -11 94 -23 103 -48 35
-82 66 -82 74 0 19 23 7 67 -33z m995 1 c21 -12 51 -66 43 -79 -3 -5 -12 -7
-21 -3 -22 8 -57 -26 -43 -43 8 -9 17 -11 28 -4 42 22 127 -21 136 -69 6 -32
14 -38 26 -21 8 11 9 8 5 -13 -5 -20 -2 -29 11 -34 15 -6 15 -7 0 -12 -11 -4
-13 -11 -8 -20 7 -11 14 -9 35 12 27 28 34 65 14 85 -9 9 -7 13 6 18 22 8 24
6 29 -41 5 -47 -12 -86 -45 -103 -14 -8 -31 -32 -41 -62 -19 -54 -85 -128
-138 -156 -37 -18 -126 -15 -139 5 -4 7 -11 12 -16 12 -5 -1 -17 6 -27 14 -9
8 -21 15 -25 16 -4 0 -16 12 -28 27 -24 32 -70 212 -56 221 5 3 18 22 29 41
13 23 31 39 54 46 23 8 35 19 37 34 3 20 0 22 -32 18 -35 -4 -35 -3 -30 25 10
57 32 80 93 97 29 8 77 3 103 -11z m-467 -258 c-6 -5 -26 -10 -45 -11 -57 -3
-68 2 -20 10 70 11 75 11 65 1z m-206 -30 c-25 -10 -86 -21 -135 -25 -49 -3
-107 -8 -129 -11 -107 -12 -156 -13 -153 -3 2 6 33 12 68 14 36 1 101 8 145
14 88 12 212 27 235 28 8 1 -6 -7 -31 -17z m402 -36 c0 -5 2 -18 4 -27 5 -25
-12 -22 -40 7 -27 26 -33 60 -12 68 12 5 46 -29 48 -48z m-321 16 c0 -5 -12
-23 -27 -40 -16 -18 -28 -44 -28 -59 -1 -23 -7 -29 -45 -40 -25 -8 -52 -16
-60 -19 -34 -12 -61 -11 -67 3 -6 16 -74 54 -96 54 -14 0 -57 32 -57 42 0 7
76 17 179 24 49 4 101 14 125 25 44 20 76 24 76 10z m926 -146 c47 -13 67 -28
126 -88 145 -150 261 -365 254 -474 -5 -85 -96 -254 -96 -179 0 30 -138 287
-176 328 -61 65 -124 106 -124 81 0 -5 36 -43 79 -85 76 -76 104 -118 76 -118
-7 0 -36 -11 -64 -26 -28 -14 -55 -23 -60 -20 -9 6 -68 -36 -114 -80 -15 -16
-35 -29 -44 -30 -9 -2 -27 -5 -39 -8 -19 -5 -23 -1 -29 30 -3 20 -8 80 -11
133 -2 53 -6 133 -9 177 l-5 81 27 -5 c39 -7 52 18 47 87 -3 32 0 71 6 87 6
16 14 47 16 69 9 68 28 73 140 40z m-171 -70 c-9 -31 -25 -65 -35 -75 -19 -19
-21 -19 -55 -3 -39 19 -44 29 -16 38 23 7 111 93 112 109 0 7 2 6 6 -1 2 -7
-3 -38 -12 -68z m-770 57 c6 -4 18 -19 27 -33 16 -25 16 -28 0 -41 -9 -8 -33
-24 -52 -34 -19 -10 -37 -21 -40 -24 -9 -10 -54 -36 -73 -43 -14 -5 -22 1 -34
31 -35 84 -35 91 3 107 19 8 47 16 62 19 15 2 27 5 27 6 0 1 11 4 24 6 14 2
27 7 30 9 6 7 14 6 26 -3z m466 -95 c3 -5 9 -8 13 -7 10 2 76 -23 76 -30 -1
-15 -54 -60 -72 -60 -15 0 -58 76 -58 104 0 26 2 27 18 15 9 -8 20 -18 23 -22z
m-370 -14 c55 -66 269 -73 269 -9 0 22 30 28 36 8 3 -9 16 -39 29 -67 14 -27
27 -71 31 -97 7 -56 27 -67 67 -38 16 12 31 20 33 17 2 -2 5 -73 6 -158 1 -89
8 -196 18 -252 9 -54 13 -99 10 -101 -3 -1 -32 -2 -65 -1 -44 0 -59 3 -57 13
1 8 -2 11 -7 8 -5 -4 -16 3 -24 14 -7 11 -17 17 -21 12 -4 -4 -6 -2 -5 3 2 6
-6 30 -18 55 -25 52 -28 68 -47 245 -10 89 -19 136 -28 141 -17 10 -18 -2 -10
-65 11 -76 5 -82 -81 -82 -154 0 -243 45 -325 163 -17 25 -34 57 -37 71 -6 22
-2 28 27 41 36 17 70 37 78 47 8 10 84 48 96 49 6 0 18 -7 25 -17z m529 -91
c0 -23 -4 -32 -12 -30 -15 5 -23 52 -13 76 9 25 25 -4 25 -46z m51 -80 c0 -9
2 -26 5 -37 2 -11 6 -64 9 -118 l5 -98 -24 16 c-29 20 -56 10 -56 -21 0 -30
35 -51 56 -34 7 7 11 16 8 21 -3 5 0 9 5 9 6 0 11 -10 12 -22 2 -54 8 -106 18
-148 6 -25 11 -52 11 -61 0 -18 -34 -35 -69 -35 -21 1 -27 9 -38 51 -19 75
-25 143 -26 328 -2 151 0 167 15 167 9 0 20 5 23 10 9 15 45 -7 46 -28z m446
-299 c43 -60 109 -229 132 -343 21 -99 26 -267 10 -325 -6 -22 -13 -51 -16
-65 -3 -14 -12 -31 -21 -37 -23 -19 -90 -16 -147 6 -29 11 -63 17 -82 14 -22
-4 -34 -1 -37 8 -3 8 -7 97 -10 199 -4 152 -9 197 -26 250 -11 36 -23 72 -25
80 -2 8 -12 36 -24 63 -23 54 -19 75 15 83 30 8 51 -9 70 -55 31 -76 39 -91
47 -91 21 0 -22 118 -57 157 -24 29 -17 36 36 36 37 0 46 -5 80 -44 21 -24 38
-51 38 -60 0 -15 28 -35 36 -26 7 7 -36 87 -66 121 -27 31 -31 39 -19 47 25
15 45 10 66 -18z m-279 -138 c2 -2 19 -48 37 -101 37 -107 34 -137 -12 -149
-20 -5 -31 0 -51 25 -14 16 -32 30 -40 30 -10 0 -13 8 -10 31 4 25 1 33 -14
37 -10 2 -19 9 -19 16 -3 25 4 51 15 58 17 12 28 9 20 -4 -4 -7 -3 -8 4 -4 15
9 16 43 2 51 -20 12 2 25 33 20 17 -4 33 -8 35 -10z m-148 -127 c0 -4 10 -10
22 -14 46 -14 -16 -28 -132 -28 -111 -1 -115 0 -118 21 -2 14 3 23 15 25 30 7
213 3 213 -4z m50 -78 c6 -11 15 -20 21 -20 5 0 26 -16 45 -36 l36 -35 -27
-52 c-16 -29 -40 -74 -54 -102 -24 -47 -114 -150 -131 -150 -5 0 -12 -3 -16
-7 -4 -5 -23 -8 -41 -8 -25 0 -43 8 -65 30 -50 50 -66 37 -20 -17 30 -36 74
-46 128 -32 43 12 118 92 154 164 77 153 125 224 142 207 5 -5 11 -89 13 -192
2 -100 6 -184 9 -187 3 -3 18 -6 33 -7 l28 -1 3 -96 c4 -123 -5 -158 -47 -183
-30 -17 -53 -19 -205 -19 -372 1 -446 26 -433 141 3 26 10 61 16 77 5 17 13
50 16 75 4 25 9 61 12 80 2 19 16 82 29 139 13 56 26 118 28 136 7 55 33 95
64 96 15 1 71 3 125 4 54 2 101 6 104 9 11 11 22 6 33 -14z m350 -457 c25 -9
47 -18 49 -19 2 -2 5 -49 7 -106 4 -118 11 -242 21 -413 12 -198 5 -548 -12
-575 -11 -17 -23 -11 -77 39 -77 72 -143 103 -230 107 -39 2 -73 5 -75 7 -2 2
7 44 19 93 24 96 28 223 15 439 l-7 110 38 1 c94 2 131 14 159 50 25 34 27 41
27 160 1 73 5 124 11 124 5 0 30 -8 55 -17z m-445 -317 c27 -2 40 -7 39 -17
-2 -21 -71 -244 -82 -266 -6 -10 -24 -56 -42 -103 -17 -47 -62 -141 -99 -210
-38 -69 -77 -144 -87 -167 -16 -35 -24 -43 -46 -43 -16 0 -28 4 -28 9 0 24
-112 116 -187 152 -46 23 -83 43 -83 45 0 5 15 24 45 57 12 12 39 47 61 77 65
88 244 433 244 470 0 12 35 12 265 -4z m-603 -656 c31 -15 45 -50 20 -50 -10
1 -35 16 -57 36 -36 31 -38 34 -15 30 14 -2 37 -9 52 -16z m-86 -8 c10 -9 32
-26 49 -36 16 -11 24 -21 18 -23 -14 -5 -114 62 -106 71 10 10 18 7 39 -12z
m4 -56 c55 -39 89 -50 97 -31 2 8 14 17 25 21 15 5 19 13 16 35 -5 34 -7 34
40 10 50 -26 142 -114 134 -128 -4 -6 -25 -11 -47 -10 -22 0 -103 -3 -180 -8
-223 -14 -253 -11 -267 21 -13 27 16 80 65 118 35 28 39 26 117 -28z m877 19
c20 -8 34 -18 31 -21 -6 -6 -118 24 -118 32 0 10 53 3 87 -11z m140 -17 c21
-12 57 -41 81 -65 23 -23 49 -43 57 -43 15 0 21 -35 8 -43 -37 -22 -467 -24
-501 -3 -17 10 -8 49 20 89 21 30 18 30 104 13 11 -2 40 -10 63 -17 42 -12 43
-12 77 22 l34 35 -20 22 -21 23 30 -6 c16 -3 47 -15 68 -27z m-178 -19 c44
-14 68 -34 31 -26 -14 3 -49 11 -78 18 -32 7 -49 15 -41 20 14 8 34 5 88 -12z"/>
<path d="M1994 2870 c-24 -9 -37 -26 -41 -52 -4 -28 13 -29 25 -3 13 29 28 31
53 9 27 -24 33 1 7 30 -18 19 -28 23 -44 16z"/>
<path d="M1762 2838 c-16 -20 -19 -61 -4 -65 7 -3 12 4 12 16 0 31 21 37 42
11 14 -18 22 -20 31 -11 8 8 7 16 -8 30 -27 26 -60 34 -73 19z"/>
<path d="M1957 2694 c-1 -1 -27 -5 -57 -9 -78 -10 -89 -22 -49 -54 36 -28 49
-32 97 -33 41 0 92 44 92 79 0 21 -4 24 -40 21 -22 -1 -42 -3 -43 -4z m39 -43
c-26 -28 -71 -36 -98 -17 -12 9 -20 16 -18 17 3 0 21 3 40 6 19 2 37 7 39 9 2
2 16 4 29 4 24 0 24 -1 8 -19z"/>
<path d="M1964 2266 c-15 -40 20 -72 51 -46 11 9 11 17 3 36 -12 26 -45 32
-54 10z"/>
<path d="M1992 1937 c-16 -20 4 -57 32 -57 26 0 46 34 29 51 -15 15 -51 19
-61 6z"/>
<path d="M3353 123 c0 -7 5 -9 11 -5 14 10 27 9 45 -2 10 -6 12 -5 7 2 -4 7
-3 12 3 12 5 0 11 -5 13 -11 2 -7 8 -7 15 3 10 11 2 13 -41 13 -36 1 -53 -3
-53 -12z"/>
</g>
</svg>
