<?xml version="1.0" standalone="no"?>
<!DOCTYPE svg PUBLIC "-//W3C//DTD SVG 20010904//EN"
 "http://www.w3.org/TR/2001/REC-SVG-20010904/DTD/svg10.dtd">
<svg version="1.0" xmlns="http://www.w3.org/2000/svg"
 width="100px" height="100px" viewBox="0 0 320 320"
 preserveAspectRatio="xMidYMid meet">
<metadata>
Created by potrace 1.8, written by Peter Selinger 2001-2007
</metadata>
<g transform="translate(0,256) scale(0.080000,-0.080000)"
fill="#000000" stroke="none">
<path d="M1854 3118 c-3 -5 -12 -7 -19 -4 -7 2 -24 -2 -39 -9 -14 -8 -26 -12
-26 -10 0 9 -119 -56 -155 -85 -42 -34 -51 -36 -144 -45 -107 -10 -153 -36
-198 -113 -63 -107 -38 -286 62 -455 22 -37 36 -75 39 -108 3 -28 7 -58 10
-67 3 -9 7 -34 10 -55 3 -20 15 -63 27 -95 11 -31 23 -65 26 -74 3 -10 9 -18
14 -18 5 0 9 -7 9 -15 0 -8 5 -15 10 -15 6 0 10 -5 10 -10 0 -14 60 -74 89
-89 28 -15 27 -21 -14 -72 -19 -24 -35 -50 -35 -56 0 -7 -5 -13 -11 -13 -5 0
-8 -4 -5 -9 4 -5 2 -11 -2 -13 -9 -3 -89 -167 -97 -198 -20 -78 -30 -110 -34
-110 -3 0 -7 -10 -7 -22 -3 -50 -9 -88 -14 -88 -3 0 -6 -12 -7 -28 -1 -15 -4
-62 -8 -104 l-7 -77 31 -16 c28 -14 31 -19 27 -56 -2 -23 2 -55 9 -73 13 -32
57 -76 75 -76 6 0 10 -40 11 -97 1 -54 2 -102 3 -108 14 -84 20 -123 21 -135
0 -8 3 -19 6 -25 3 -5 12 -37 19 -70 7 -33 17 -65 23 -72 10 -13 -37 -83 -56
-83 -6 0 -7 -3 -4 -7 4 -3 0 -17 -9 -30 -16 -25 -11 -83 7 -83 5 0 9 -7 9 -15
0 -8 8 -15 18 -15 9 0 35 -7 57 -14 47 -17 168 -14 190 4 8 7 15 9 15 6 0 -4
10 0 22 8 21 15 24 14 46 -12 13 -15 27 -26 30 -25 4 1 23 -1 42 -6 120 -30
212 12 237 109 l9 34 125 2 c145 3 199 9 294 34 38 10 73 16 77 14 4 -3 8 -1
8 4 0 5 10 12 21 15 19 5 21 10 14 39 -4 18 -8 44 -10 58 -1 14 -5 32 -8 40
-5 13 -17 69 -32 140 -3 14 -9 43 -14 65 -8 34 -28 128 -35 160 -4 21 -19 36
-31 31 -7 -2 -16 -2 -20 2 -3 3 -16 7 -28 7 -15 0 -22 6 -22 20 0 11 -5 23
-12 28 -7 4 -9 15 -6 24 4 10 2 14 -5 9 -20 -12 -24 13 -27 173 -1 87 -5 163
-8 168 -3 5 -9 29 -12 54 -10 71 -10 73 -18 87 -5 6 -6 12 -3 12 3 0 -1 18 -9
40 -8 22 -12 40 -9 40 2 0 -2 13 -10 29 -9 16 -12 31 -9 35 4 3 1 6 -5 6 -7 0
-12 8 -12 18 -1 16 -36 92 -70 152 -8 14 -36 53 -62 87 -27 35 -48 66 -48 71
0 4 17 16 38 27 52 28 118 100 126 138 2 7 8 23 13 37 6 14 8 30 6 36 -2 7 11
22 29 35 34 24 54 46 58 64 1 6 5 15 10 20 4 6 7 44 6 85 -2 56 3 84 16 111
25 49 30 72 33 155 3 77 -21 171 -64 249 -21 36 -141 165 -141 150 0 -3 -11 6
-25 20 -14 14 -30 25 -35 25 -5 0 -15 6 -22 13 -14 13 -96 55 -113 57 -5 1
-18 6 -28 11 -39 22 -232 35 -243 17z m207 -49 c35 -10 129 -54 129 -61 0 -5
6 -8 13 -8 16 0 95 -58 157 -115 44 -41 102 -148 115 -215 14 -68 10 -145 -9
-198 -19 -53 -20 -53 -57 -49 -21 2 -43 -1 -48 -6 -11 -11 -36 4 -36 21 -1 22
-51 105 -78 129 -18 16 -41 42 -51 58 -30 47 -59 73 -73 68 -21 -8 -15 -34 13
-59 14 -13 22 -29 19 -34 -3 -6 -1 -10 4 -10 6 0 11 -11 11 -25 0 -14 -1 -25
-3 -25 -2 0 -29 13 -60 29 -68 35 -117 49 -197 57 -25 2 -63 6 -85 8 -55 6
-141 39 -157 61 -4 5 -8 7 -8 2 0 -7 -30 18 -98 81 -34 31 -52 39 -65 26 -3
-4 -1 -16 4 -27 10 -17 6 -25 -24 -52 -68 -63 -110 -152 -116 -252 -2 -33 -20
-6 -46 70 -39 111 -41 221 -4 287 35 64 85 89 185 93 76 3 82 6 146 50 62 44
178 103 178 91 0 -3 8 -1 18 5 16 9 188 9 223 0z m-468 -380 c29 -28 121 -74
177 -89 24 -6 76 -13 116 -15 70 -4 184 -35 214 -58 43 -34 81 -49 95 -37 8 7
15 19 15 26 0 33 29 3 59 -61 29 -62 33 -93 16 -102 -13 -8 -13 -11 -1 -28 14
-19 16 -19 50 18 43 45 70 47 90 8 15 -29 17 -101 3 -101 -5 0 -6 -4 -2 -9 10
-17 -40 -64 -71 -66 -50 -3 -52 -4 -47 -25 3 -11 9 -17 14 -14 5 3 9 -6 9 -20
0 -14 -6 -26 -12 -27 -10 0 -10 -2 -1 -5 29 -12 -62 -135 -112 -150 -11 -4
-22 -10 -25 -13 -6 -8 -80 -41 -100 -45 -8 -2 -28 -8 -43 -14 -15 -7 -42 -14
-59 -17 -17 -3 -35 -8 -40 -11 -4 -3 -8 1 -8 8 0 10 -2 10 -8 1 -9 -14 -190
-11 -214 3 -7 5 -24 10 -37 12 -107 14 -211 166 -242 352 -37 222 -25 360 40
439 l28 34 7 -49 c5 -40 10 -50 25 -50 17 0 19 7 19 51 -1 47 6 75 18 75 3 0
15 -9 27 -21z m560 -851 c30 -32 97 -126 97 -136 0 -7 3 -12 8 -12 8 0 38 -62
33 -69 -1 -2 1 -7 7 -10 9 -6 71 -161 78 -194 2 -10 5 -26 8 -35 5 -16 10 -45
22 -117 3 -16 7 -61 10 -98 2 -38 5 -71 5 -75 6 -39 2 -41 -120 -41 l-120 -1
-9 42 c-7 37 -7 206 1 353 1 30 -2 40 -15 43 -12 2 -19 -7 -26 -40 -11 -52
-13 -340 -2 -377 4 -14 3 -37 -2 -51 -5 -14 -10 -43 -11 -65 l-2 -39 -85 -23
c-47 -12 -95 -24 -107 -26 -12 -1 -25 -6 -29 -10 -4 -4 -18 -7 -30 -7 -17 0
-25 7 -30 25 -3 14 -10 25 -15 25 -5 0 -8 3 -7 8 1 4 -5 21 -14 37 -8 17 -14
39 -12 50 2 11 6 56 9 100 2 44 7 91 11 105 3 14 7 41 9 60 9 72 17 89 75 145
33 31 60 54 60 51 0 -3 11 4 24 15 13 12 28 21 33 21 4 0 17 7 28 14 11 8 27
14 37 14 33 0 38 31 12 83 -26 50 -25 67 5 67 10 0 21 3 25 8 4 4 11 8 14 8
58 12 60 23 16 103 -28 50 -22 81 9 49z m-53 -58 c25 -49 25 -60 2 -60 -21 0
-84 -29 -93 -43 -4 -5 5 -32 18 -60 24 -49 24 -51 6 -64 -10 -8 -28 -16 -40
-20 -13 -3 -23 -9 -23 -13 0 -4 -13 -13 -30 -20 -16 -7 -30 -16 -30 -21 0 -5
-13 -15 -29 -24 l-30 -15 15 28 c7 15 14 33 14 40 0 7 4 20 9 30 17 32 65 137
65 144 2 20 74 129 91 136 26 12 31 8 55 -38z m-432 26 c1 -6 3 -29 6 -51 2
-22 9 -67 15 -100 6 -33 13 -71 15 -85 2 -14 11 -45 20 -70 8 -24 14 -45 13
-46 -1 -2 -27 16 -58 39 -60 45 -58 38 -28 112 21 53 20 65 -10 109 -29 41
-33 76 -10 76 5 0 9 6 9 13 0 16 26 19 28 3z m173 -17 c35 0 77 2 92 6 26 5
28 4 22 -16 -4 -12 -21 -45 -37 -73 -17 -28 -30 -53 -30 -56 0 -3 -5 -16 -10
-30 -6 -14 -25 -65 -43 -115 l-33 -90 -16 39 c-9 21 -16 42 -16 47 0 4 -5 20
-12 36 -6 15 -12 33 -12 38 -1 6 -5 30 -10 54 -4 24 -9 59 -10 77 -2 19 -5 36
-8 39 -3 3 -3 17 0 31 4 21 8 24 32 19 15 -3 56 -6 91 -6z m-241 -95 c0 -8 5
-14 10 -14 13 0 13 -22 -1 -57 -6 -15 -10 -29 -10 -31 1 -1 -5 -15 -13 -31
-12 -22 -13 -32 -3 -44 12 -16 146 -121 189 -148 10 -6 3 -123 -8 -153 -6 -16
-8 -33 -28 -326 -1 -18 -7 -24 -21 -23 -21 2 -58 10 -62 13 -4 3 -12 5 -60 14
-59 11 -62 15 -80 136 -9 65 -2 245 13 292 3 9 7 25 9 35 2 10 9 38 15 63 6
25 14 54 17 66 3 15 -1 23 -15 26 -16 5 -22 -3 -35 -46 -32 -104 -49 -204 -52
-299 -2 -55 -6 -101 -9 -105 -7 -6 -57 18 -68 33 -4 5 -5 19 -3 30 2 11 6 40
9 65 2 25 7 56 10 70 3 14 8 39 10 55 6 39 46 177 55 190 4 6 13 29 21 53 7
23 17 42 22 42 4 0 8 6 8 13 0 7 14 34 30 61 28 44 50 53 50 20z m-123 -710
c3 -28 13 -76 19 -85 10 -16 -14 -17 -28 -1 -25 30 -36 66 -27 90 10 27 33 25
36 -4z m929 18 c7 -1 14 -11 17 -22 7 -25 -27 -68 -66 -85 -31 -13 -67 -9 -67
6 0 5 -7 9 -15 9 -9 0 -18 7 -22 16 -6 17 -52 11 -65 -9 -4 -6 -10 -8 -14 -4
-12 12 -15 80 -4 87 9 5 202 7 236 2z m-88 -157 c15 -2 46 6 70 17 41 19 44
19 62 3 11 -10 20 -26 20 -37 0 -16 -10 -18 -123 -18 -137 0 -151 5 -135 51
l10 29 34 -21 c19 -11 47 -22 62 -24z m-167 21 c5 3 9 -4 9 -15 0 -28 -3 -36
-15 -37 -5 -1 -14 -3 -20 -4 -5 -1 -14 -2 -19 -1 -6 1 -20 0 -33 -4 l-23 -5 0
-269 c0 -206 -3 -270 -12 -273 -23 -8 -108 -10 -138 -3 -25 6 -30 12 -39 58
-6 29 -13 77 -16 107 -3 30 -8 62 -10 70 -2 8 -7 69 -10 135 -4 66 -7 122 -7
125 -2 37 4 56 20 57 25 1 71 10 117 23 22 6 49 12 60 15 11 2 43 10 70 18 28
7 52 10 53 5 2 -4 8 -6 13 -2z m-551 -16 c39 -12 89 -22 108 -23 6 0 12 -3 12
-7 0 -4 11 -6 25 -5 14 2 26 -2 26 -8 1 -7 3 -48 4 -92 3 -87 14 -225 21 -265
5 -29 15 -108 17 -136 2 -14 -3 -18 -18 -16 -11 2 -22 7 -25 10 -5 7 -25 10
-103 16 -28 1 -53 9 -58 17 -9 13 -27 73 -35 112 -2 10 -6 27 -9 37 -18 57
-27 127 -29 240 -4 141 -4 140 64 120z m974 -89 c5 0 6 -4 3 -7 -3 -4 -2 -14
3 -24 15 -27 18 -90 6 -98 -17 -11 -437 -11 -468 0 -26 9 -27 13 -26 66 1 32
2 59 4 62 2 4 448 5 478 1z m-264 -184 c31 -2 45 -7 46 -17 2 -37 5 -41 21
-38 9 2 17 11 19 22 4 30 14 34 115 41 l96 6 11 -43 c12 -47 24 -96 28 -115 1
-6 7 -35 13 -64 6 -29 8 -56 3 -61 -12 -12 -104 -38 -114 -32 -4 3 -8 1 -8 -3
0 -5 -8 -9 -17 -9 -10 -1 -47 -5 -83 -9 -106 -13 -322 -7 -339 11 -12 11 -10
309 2 316 6 4 45 5 87 2 41 -3 95 -6 120 -7z m-532 -322 c38 -16 41 -19 39
-53 -1 -21 -6 -42 -12 -48 -37 -38 -161 -50 -232 -21 -48 19 -56 44 -26 87 48
70 118 80 231 35z m172 -49 c25 -1 64 2 88 7 62 13 93 3 88 -27 -11 -62 -49
-88 -127 -88 -66 0 -103 13 -125 46 -21 33 -12 82 14 70 9 -4 37 -8 62 -8z"/>
<path d="M1515 2508 c-27 -16 -45 -34 -45 -47 0 -20 22 -22 48 -5 15 10 41 19
57 20 56 2 57 2 45 24 -12 23 -71 27 -105 8z"/>
<path d="M2010 2476 c0 -17 11 -25 41 -31 12 -3 30 -14 41 -25 10 -11 25 -20
33 -20 29 0 25 22 -8 55 -27 27 -43 35 -71 35 -25 0 -36 -5 -36 -14z"/>
<path d="M1507 2319 c-30 -24 -13 -40 33 -30 19 4 50 3 69 -2 41 -11 60 3 36
27 -9 9 -22 17 -28 17 -66 7 -90 5 -110 -12z"/>
<path d="M2004 2301 c-27 -12 -37 -28 -30 -46 4 -12 10 -12 41 0 31 14 39 14
70 0 32 -13 37 -13 42 1 13 36 -72 66 -123 45z"/>
<path d="M1716 2184 c-9 -8 -16 -20 -16 -26 0 -16 66 -78 84 -78 25 0 19 33
-9 54 -14 11 -25 29 -25 42 0 28 -12 31 -34 8z"/>
<path d="M1686 1972 c-10 -16 13 -35 64 -52 56 -19 87 -19 169 2 8 1 23 11 34
22 29 28 7 45 -36 27 -47 -20 -134 -23 -168 -6 -31 17 -55 19 -63 7z"/>
</g>
</svg>
