<?xml version="1.0" standalone="no"?>
<!DOCTYPE svg PUBLIC "-//W3C//DTD SVG 20010904//EN"
 "http://www.w3.org/TR/2001/REC-SVG-20010904/DTD/svg10.dtd">
<svg version="1.0" xmlns="http://www.w3.org/2000/svg"
 width="100px" height="100px" viewBox="0 0 320 320"
 preserveAspectRatio="xMidYMid meet">
<metadata>
Created by potrace 1.8, written by Peter Selinger 2001-2007
</metadata>
<g transform="translate(0,320) scale(0.080000,-0.080000)"
fill="#000000" stroke="none">
<path d="M905 3974 c-68 -23 -75 -26 -75 -35 0 -5 -5 -9 -10 -9 -6 0 -26 -14
-46 -32 -19 -18 -44 -39 -55 -48 -11 -8 -39 -33 -63 -55 -23 -22 -58 -52 -77
-66 -19 -15 -43 -35 -54 -46 -11 -10 -81 -71 -157 -136 -75 -64 -152 -136
-171 -159 -92 -114 -115 -234 -64 -336 23 -45 23 -48 7 -77 -23 -40 -16 -100
16 -142 14 -18 29 -33 35 -33 5 0 -4 -14 -21 -31 -28 -30 -44 -76 -37 -109 7
-35 20 -65 31 -72 7 -5 3 -13 -12 -23 -25 -18 -52 -75 -52 -110 0 -65 58 -129
124 -138 22 -3 32 -11 40 -33 17 -49 49 -80 89 -90 l37 -9 -117 -60 c-65 -33
-120 -62 -123 -65 -3 -3 -21 -14 -40 -24 -54 -29 -99 -76 -106 -110 -5 -31 16
-90 54 -148 9 -15 42 -65 72 -112 30 -48 60 -84 66 -82 7 3 14 -9 17 -27 7
-44 11 -60 19 -72 4 -6 3 -17 -3 -25 -14 -24 -10 -66 9 -90 18 -22 20 -23 52
-7 55 28 59 24 44 -40 -7 -32 -15 -86 -18 -120 -3 -35 -8 -89 -12 -120 -3 -32
-6 -98 -8 -146 -3 -86 -2 -88 25 -107 15 -11 32 -20 38 -20 12 0 13 -10 13
-154 -1 -115 9 -142 52 -152 47 -11 56 -13 120 -18 33 -3 64 -10 69 -15 8 -8
37 -114 70 -251 6 -24 4 -26 -30 -28 -94 -7 -151 -80 -130 -164 l7 -28 369 0
c286 0 370 3 373 12 7 20 1 90 -11 120 -15 40 -67 68 -123 68 l-46 0 13 53
c14 60 31 137 40 184 4 18 12 33 18 34 45 3 136 30 144 42 8 13 11 57 12 170
1 96 -6 86 78 117 17 7 30 17 28 23 -2 7 -6 44 -10 82 -3 39 -7 81 -10 95 -4
25 -10 82 -20 183 -3 28 -8 71 -10 94 -8 69 -15 130 -20 180 -3 27 -8 66 -10
88 -8 69 -16 138 -20 185 -3 25 -7 59 -9 75 -3 17 -8 59 -11 95 -4 36 -9 68
-11 71 -7 12 21 26 91 44 89 23 233 83 316 131 166 96 299 223 371 354 26 48
68 149 72 171 3 27 16 36 73 54 32 11 69 27 82 37 16 12 42 18 77 18 81 0 106
41 65 104 -11 17 -18 33 -16 37 3 3 -4 14 -15 24 -14 13 -28 16 -52 10 -18 -3
-63 -8 -100 -10 -71 -4 -173 -22 -198 -35 -10 -6 -24 1 -45 21 -48 48 -110 53
-132 10 -9 -20 -8 -33 8 -75 l19 -51 -32 -65 c-36 -70 -147 -190 -230 -248
-27 -18 -48 -32 -49 -30 0 2 -2 13 -5 26 -2 13 -11 36 -19 53 -11 21 -13 34
-6 48 31 56 16 156 -28 188 -14 10 -13 14 8 37 30 32 35 114 9 143 -15 16 -15
22 -1 69 14 44 22 54 62 74 56 29 98 71 107 104 7 30 -12 95 -35 117 -9 8 -38
42 -66 74 -27 32 -61 70 -74 84 -31 35 -108 128 -169 206 -4 6 -23 33 -42 60
-51 76 -153 170 -216 201 -66 32 -154 39 -219 18z m160 -39 c71 -19 162 -99
245 -215 49 -69 120 -159 146 -186 5 -6 30 -35 55 -64 24 -28 53 -62 64 -74
59 -65 101 -121 107 -143 10 -35 -12 -65 -71 -97 l-50 -26 0 55 c0 30 -7 81
-17 112 -10 32 -17 61 -16 66 1 4 -3 7 -8 7 -6 0 -10 5 -10 10 0 15 -91 143
-112 158 -10 7 -18 18 -18 23 0 5 -10 20 -22 33 -13 12 -32 35 -43 51 -33 47
-95 103 -122 110 -34 8 -40 0 -12 -16 26 -14 69 -56 144 -144 28 -31 58 -67
69 -79 28 -31 81 -117 94 -151 23 -61 34 -121 37 -204 3 -69 0 -95 -15 -129
-23 -52 -37 -53 -45 -4 -22 125 -82 251 -161 334 -56 60 -89 84 -161 120 -66
32 -213 72 -213 57 0 -5 9 -9 20 -9 35 0 153 -43 210 -76 157 -92 276 -287
283 -464 2 -39 5 -47 17 -41 8 4 21 6 28 5 6 -1 16 -2 20 -3 21 -3 30 -47 17
-78 -23 -54 -82 -73 -72 -23 4 16 2 32 -4 36 -13 8 -19 2 -23 -23 -19 -98 -73
-199 -144 -271 -53 -54 -166 -134 -176 -125 -3 4 -6 2 -6 -3 0 -6 -29 -21 -65
-33 l-65 -23 0 -54 c0 -67 -15 -99 -56 -125 -30 -18 -35 -19 -56 -5 -34 22
-54 65 -57 119 -2 42 0 47 18 47 25 0 29 30 4 31 -266 10 -490 185 -537 417
-1 7 -8 18 -14 24 -13 13 -16 3 -13 -34 3 -27 -12 -22 -52 17 -44 43 -50 92
-16 124 23 21 39 22 63 2 14 -12 16 -9 17 30 4 183 81 326 232 433 59 41 179
96 217 99 10 1 17 4 14 8 -2 5 -17 4 -32 -1 -15 -4 -52 -16 -82 -25 -65 -20
-157 -74 -212 -124 -47 -43 -108 -125 -108 -146 0 -8 -4 -15 -8 -15 -5 0 -9
-6 -10 -12 -1 -7 -8 -38 -17 -68 -8 -30 -15 -72 -15 -93 0 -36 -2 -38 -27 -35
-60 7 -92 138 -56 230 32 82 84 142 224 258 83 70 250 214 287 248 17 16 32
28 32 26 0 -3 11 5 23 18 53 52 97 88 107 88 5 0 10 4 10 9 0 9 66 37 105 44
27 5 74 1 110 -8z m922 -1031 c18 -14 33 -32 33 -40 0 -7 6 -14 14 -14 7 0 19
-7 26 -15 7 -9 15 -13 18 -10 3 3 -3 13 -12 24 -17 18 -16 19 17 30 70 24 168
39 191 31 17 -6 16 -8 -6 -34 -19 -22 -35 -30 -68 -32 -24 -2 -48 -8 -54 -14
-8 -8 7 -10 53 -5 46 4 68 11 77 24 32 45 75 83 89 77 24 -9 18 -22 -32 -79
-38 -42 -60 -58 -103 -72 -30 -9 -77 -28 -104 -42 l-48 -24 -52 25 c-49 24
-52 28 -79 103 -15 43 -27 81 -27 86 0 15 34 6 67 -19z m422 -53 c12 -22 5
-31 -25 -31 -25 0 -38 22 -21 39 16 16 35 13 46 -8z m-330 -176 c9 -8 11 -23
6 -44 l-6 -30 -47 32 c-26 18 -66 40 -89 51 l-41 18 17 29 16 28 65 -35 c36
-20 71 -42 79 -49z m-109 -23 c25 -14 56 -36 69 -49 28 -28 24 -41 -41 -138
-117 -172 -320 -311 -578 -395 -66 -22 -125 -40 -129 -40 -5 0 -17 20 -27 45
-26 69 -32 62 -19 -20 7 -41 10 -77 7 -79 -10 -11 -43 17 -61 52 -26 53 -38
106 -45 209 -5 59 -1 61 124 78 25 3 53 8 62 11 9 3 25 7 35 9 10 2 50 14 88
26 39 13 72 23 75 24 62 19 203 121 283 204 42 45 77 85 77 91 0 11 21 4 80
-28z m-1190 -379 c0 -8 15 -30 34 -49 30 -30 33 -36 19 -49 -17 -18 -34 -19
-66 -4 -36 16 -65 81 -49 106 17 25 62 22 62 -4z m275 4 c12 -45 -36 -117 -78
-117 -13 0 -32 6 -42 14 -19 14 -19 15 12 43 18 15 37 40 42 56 14 35 58 39
66 4z m66 11 c1 -7 2 -29 4 -48 7 -103 21 -172 48 -225 18 -37 63 -85 79 -85
7 0 18 -77 33 -235 3 -33 7 -71 9 -85 3 -14 7 -55 11 -92 3 -37 8 -77 10 -90
2 -13 6 -52 9 -88 4 -36 8 -76 10 -90 3 -14 7 -56 11 -93 3 -37 8 -77 10 -87
5 -26 17 -156 19 -200 1 -32 -1 -35 -46 -48 -38 -10 -48 -18 -49 -35 0 -12 -2
-70 -3 -130 -1 -59 -7 -111 -12 -116 -5 -5 -33 -16 -63 -25 -45 -13 -100 -15
-325 -12 -149 2 -280 6 -291 8 -11 3 -38 8 -60 12 -22 4 -56 11 -75 16 l-35
10 1 107 c1 60 2 114 3 122 1 11 14 12 64 7 34 -3 73 -8 87 -11 90 -18 400
-24 555 -11 50 5 98 8 107 8 9 0 22 6 30 15 11 14 3 15 -77 8 -152 -13 -175
-14 -330 -15 -217 -2 -378 18 -465 58 -36 17 -62 37 -56 43 2 2 6 60 10 129 6
127 8 146 20 235 9 65 17 109 32 178 3 15 1 27 -4 27 -11 0 -80 -26 -105 -40
-13 -8 -19 -7 -23 5 -10 24 14 44 47 40 16 -2 31 1 34 6 4 5 -5 9 -18 9 -33 0
-64 37 -72 87 -8 52 5 78 49 93 43 14 57 11 77 -20 12 -18 16 -42 14 -88 -2
-35 -1 -61 2 -59 2 3 4 7 3 9 -1 2 3 15 9 31 11 28 17 55 27 117 3 19 7 43 10
52 3 9 6 25 8 35 9 50 17 90 21 113 3 14 8 38 11 55 3 16 9 32 13 35 76 52
140 165 157 278 8 55 13 70 28 75 11 4 13 -20 12 -118 -1 -140 3 -150 70 -165
21 -5 92 -8 156 -7 158 3 154 -1 159 189 2 88 10 118 30 118 5 0 9 -6 10 -12z
m-484 -60 c-7 -44 -11 -61 -19 -73 -3 -5 -9 -24 -12 -40 -7 -32 -73 -126 -93
-132 -8 -3 -4 21 12 68 23 66 23 70 6 55 -11 -10 -27 -39 -37 -65 -23 -65 -29
-72 -106 -114 -37 -21 -72 -45 -77 -55 -6 -9 -11 -14 -12 -9 -1 4 -3 12 -4 17
-1 6 -3 19 -4 30 0 11 -5 20 -11 20 -5 0 -7 -7 -4 -15 13 -32 -12 -12 -39 32
-15 25 -30 43 -33 40 -7 -6 38 -97 48 -97 4 0 8 -4 8 -9 0 -5 16 -33 36 -62
l36 -53 -25 -7 c-14 -4 -52 -20 -85 -37 l-59 -30 -58 95 c-32 52 -57 106 -57
121 -1 32 46 74 129 117 32 17 60 33 61 38 2 4 8 7 13 7 9 0 121 60 304 162
69 38 89 37 82 -4z m277 -67 c33 -31 76 -32 115 -3 l33 25 -4 -73 c-5 -101 -9
-103 -171 -98 -155 5 -168 13 -172 102 -2 59 5 67 39 41 27 -21 69 -19 97 5
30 24 38 25 63 1z m-476 -328 c-11 -49 -22 -95 -24 -102 -3 -10 -19 6 -44 43
-46 70 -42 80 34 119 28 14 52 26 52 26 1 1 -7 -38 -18 -86z m-80 -104 c18
-28 11 -33 -78 -70 -69 -28 -73 -28 -86 -12 -7 10 -14 22 -14 26 0 8 138 77
155 77 6 0 16 -10 23 -21z m430 -1252 c40 -3 76 -8 79 -11 4 -3 8 -98 10 -210
2 -154 0 -207 -9 -212 -24 -15 -49 -11 -60 10 -6 12 -10 21 -8 21 12 0 -18 53
-42 73 -16 13 -27 27 -24 29 2 2 -11 62 -31 131 -19 70 -37 137 -40 149 -5 21
16 34 42 27 6 -2 43 -5 83 -7z m322 -8 c0 -6 -6 -37 -14 -68 -7 -31 -24 -105
-37 -166 -14 -66 -32 -123 -46 -144 -13 -19 -23 -39 -23 -46 0 -15 -63 -13
-83 3 -13 11 -15 46 -16 209 0 108 4 202 9 208 12 15 210 19 210 4z m96 -331
c19 -19 35 -98 20 -99 -6 -1 -55 -2 -108 -3 -82 -1 -98 1 -98 14 0 15 23 53
46 78 31 31 113 37 140 10z m-471 0 c15 -7 24 -17 21 -25 -3 -8 -2 -12 3 -8
10 6 26 -50 18 -63 -3 -4 -52 -7 -109 -7 -98 0 -103 1 -106 22 -4 27 24 72 52
83 31 13 91 12 121 -2z"/>
<path d="M810 3531 c-50 -27 -73 -62 -74 -116 -1 -38 3 -49 23 -65 23 -17 27
-17 49 -2 20 13 23 21 18 51 -16 90 -17 109 -7 115 7 4 11 -1 11 -13 0 -37 23
-70 62 -90 32 -16 45 -17 73 -8 45 13 56 44 25 69 -15 12 -26 15 -34 9 -41
-34 -108 -6 -108 44 0 14 -1 25 -2 25 -1 0 -17 -8 -36 -19z"/>
<path d="M650 3250 c-14 -3 -30 -17 -37 -30 -16 -32 -5 -41 14 -12 17 24 78
32 85 10 5 -13 28 -2 28 13 0 6 -4 7 -10 4 -5 -3 -10 -2 -10 3 0 13 -39 20
-70 12z"/>
<path d="M1016 3234 c-9 -8 -16 -17 -16 -19 0 -4 21 0 43 10 20 8 67 -9 67
-25 0 -5 5 -10 10 -10 16 0 11 26 -8 43 -23 21 -76 22 -96 1z"/>
<path d="M667 3103 c-11 -10 -8 -58 4 -70 29 -29 69 20 48 59 -10 18 -39 24
-52 11z"/>
<path d="M994 3054 c-18 -14 -17 -15 20 -10 25 3 46 0 62 -11 20 -13 24 -13
24 -1 0 16 -40 38 -69 38 -9 0 -26 -7 -37 -16z"/>
<path d="M810 2902 c-19 -13 -34 -26 -33 -30 4 -19 40 -62 51 -62 9 0 7 8 -7
28 l-20 29 26 19 c39 30 24 44 -17 16z"/>
<path d="M630 2735 c-7 -8 -19 -15 -26 -15 -8 0 -14 -4 -14 -10 0 -5 7 -10 17
-10 9 0 28 -13 42 -28 40 -43 73 -60 140 -72 110 -20 221 2 280 56 21 18 49
34 62 34 24 1 24 1 4 16 -11 8 -28 21 -38 30 -23 19 -32 12 -18 -14 8 -15 5
-24 -17 -45 -43 -40 -99 -59 -182 -60 -41 0 -87 2 -102 6 -77 16 -135 68 -123
107 7 24 -7 26 -25 5z"/>
</g>
</svg>
