<?xml version="1.0" standalone="no"?>
<!DOCTYPE svg PUBLIC "-//W3C//DTD SVG 20010904//EN"
 "http://www.w3.org/TR/2001/REC-SVG-20010904/DTD/svg10.dtd">
<svg version="1.0" xmlns="http://www.w3.org/2000/svg"
 width="100px" height="100px" viewBox="0 0 144 144"
 preserveAspectRatio="xMidYMid meet">
<metadata>
Created by potrace 1.8, written by Peter Selinger 2001-2007
</metadata>
<g transform="translate(0,144) scale(0.080000,-0.080000)"
fill="#000000" stroke="none">
<path d="M717 1646 c-61 -22 -93 -54 -134 -131 -22 -41 -27 -65 -29 -139 -2
-81 -5 -91 -28 -113 -53 -49 -43 -111 26 -156 23 -15 63 -30 90 -33 l48 -7
-38 -46 c-53 -65 -74 -101 -68 -116 2 -7 -1 -20 -7 -29 -10 -14 -17 -14 -44
-4 -26 10 -37 9 -57 -1 -14 -8 -27 -19 -30 -26 -7 -20 96 -175 118 -175 10 0
35 -17 55 -38 l37 -38 -22 -104 c-12 -58 -19 -108 -17 -112 2 -5 17 -8 33 -8
51 0 59 -8 67 -73 10 -79 9 -86 -7 -119 -10 -21 -10 -31 -1 -42 20 -24 155
-43 177 -25 7 6 28 6 52 1 43 -10 128 -9 138 1 14 14 -8 39 -49 56 l-43 19 1
81 c1 44 4 83 7 86 3 4 23 8 44 11 21 3 43 9 48 14 5 5 -4 55 -23 122 -18 62
-34 123 -37 135 -2 12 -9 34 -14 47 -6 16 -6 27 0 31 6 4 1 18 -9 33 -28 39
-31 76 -6 80 11 2 27 10 35 17 8 8 30 13 47 13 35 -1 74 21 108 60 12 14 37
30 55 36 44 14 93 82 94 130 1 31 12 46 76 107 171 164 279 270 286 280 18 30
-38 -20 -215 -191 -181 -174 -195 -185 -231 -185 -53 -1 -85 -21 -105 -64 -18
-40 -54 -70 -64 -53 -3 6 -38 28 -78 49 l-72 39 45 12 c24 7 61 12 82 12 59 0
80 10 103 47 27 43 22 107 -10 129 -19 13 -20 24 -19 107 2 80 -1 98 -21 134
-32 56 -68 80 -148 100 -38 9 -82 22 -100 30 -49 21 -104 24 -146 9z m128 -22
c22 -9 61 -19 87 -24 62 -11 109 -34 140 -68 39 -43 47 -74 43 -161 -4 -73 -3
-82 20 -109 13 -16 27 -43 30 -60 7 -43 -35 -90 -87 -96 l-38 -4 21 41 c11 23
26 54 34 69 19 33 19 62 1 77 -8 7 -14 27 -14 44 2 46 -19 113 -45 142 -17 20
-31 26 -62 25 -47 0 -81 1 -115 4 -66 7 -102 -28 -108 -103 -3 -45 -10 -62
-34 -87 -21 -23 -30 -43 -31 -68 l-1 -35 -18 27 c-10 15 -18 33 -18 40 0 18
-35 15 -52 -5 -41 -47 -24 -116 32 -128 16 -4 30 -11 30 -16 0 -6 4 -7 10 -4
12 7 71 -25 64 -36 -2 -4 -27 -6 -55 -4 -141 10 -214 98 -139 170 28 27 30 33
29 99 -1 81 6 116 34 166 57 104 144 141 242 104z m179 -153 c16 -13 46 -105
46 -140 0 -22 -14 -28 -25 -11 -3 6 -24 10 -46 10 -30 0 -46 -6 -63 -25 -27
-29 -34 -30 -55 -11 -38 34 -119 25 -137 -14 -7 -14 -13 -17 -24 -10 -12 8
-10 14 15 40 27 29 32 44 34 111 1 14 10 35 21 46 18 20 29 21 119 19 61 -2
106 -8 115 -15z m24 -179 c19 -25 14 -50 -13 -68 -30 -20 -81 -11 -96 18 -31
57 67 102 109 50z m-187 -2 c32 -18 24 -67 -16 -88 -27 -14 -80 9 -88 38 -12
44 54 76 104 50z m197 -112 c-41 -79 -66 -92 -173 -92 -88 0 -169 27 -182 61
-10 27 -23 32 -50 20 -44 -20 -79 35 -53 84 12 21 40 26 40 7 0 -15 49 -78 60
-78 6 0 7 16 4 35 -5 30 -3 35 15 35 12 0 21 -6 21 -14 0 -22 49 -56 80 -56
32 0 84 44 76 65 -3 9 1 15 9 15 8 0 15 -6 15 -13 0 -24 36 -47 74 -49 40 -1
74 23 81 58 5 30 7 31 12 7 3 -13 -10 -49 -29 -85z m247 -139 c-20 -38 -35
-54 -63 -66 -20 -8 -56 -33 -79 -54 -39 -36 -87 -58 -99 -46 -14 13 18 74 47
91 17 10 37 33 45 51 7 19 24 41 36 49 25 18 68 21 68 6 0 -5 -7 -10 -15 -10
-9 0 -19 -8 -22 -17 -4 -10 -15 -24 -25 -31 -19 -14 -25 -42 -8 -42 6 0 9 3 8
8 -4 9 39 52 52 52 6 0 10 5 10 10 0 6 7 10 15 10 8 0 19 9 25 20 6 11 15 20
21 20 5 0 -2 -23 -16 -51z m-431 -168 c-1 -1 -19 9 -38 24 -31 23 -34 31 -29
58 5 26 4 29 -12 23 -11 -4 -22 -2 -27 6 -9 15 -11 82 -2 91 6 5 114 -195 108
-202z m-130 167 c-1 -50 11 -83 29 -82 10 1 17 -4 17 -12 0 -8 -6 -14 -12 -14
-7 0 -23 -15 -36 -34 -13 -19 -32 -36 -42 -39 -22 -6 -100 41 -100 59 0 29
109 153 135 154 6 0 10 -15 9 -32z m110 6 c-5 -18 -3 -25 3 -21 11 7 22 -34
28 -103 3 -30 -1 -25 -36 40 -56 107 -56 110 -19 110 28 0 30 -2 24 -26z m52
-20 c15 -30 15 -37 3 -45 -14 -8 -25 16 -28 64 -2 26 6 20 25 -19z m66 1 c29
-14 64 -34 77 -44 l25 -19 -30 -58 c-16 -32 -33 -60 -39 -61 -6 -2 -10 17 -11
42 -1 34 -7 53 -26 73 -25 27 -63 92 -54 92 3 0 29 -11 58 -25z m-9 -84 c19
-33 23 -86 6 -97 -15 -9 -5 -81 15 -103 15 -16 13 -20 -14 -46 -16 -16 -31
-27 -33 -24 -2 2 -9 12 -14 23 -9 17 -12 16 -46 -14 -29 -25 -41 -30 -59 -24
-13 5 -26 8 -30 9 -17 1 -16 16 7 80 27 79 22 100 -26 112 l-31 8 22 28 22 27
46 -37 c26 -21 50 -42 53 -47 4 -5 14 -6 22 -3 15 6 34 83 29 120 -3 26 12 20
31 -12z m-330 -79 c14 -16 14 -18 -8 -28 -31 -15 -55 7 -35 31 16 19 23 19 43
-3z m-70 -28 c21 -14 36 -28 33 -31 -3 -3 -18 3 -33 13 -15 11 -41 24 -58 31
-29 11 -29 12 -5 12 14 1 43 -11 63 -25z m213 3 c4 -4 -7 -7 -25 -7 -17 0 -56
-9 -86 -19 -30 -11 -55 -16 -55 -11 0 13 19 23 75 36 52 12 80 13 91 1z m-218
-37 c28 -23 79 -26 104 -6 16 12 138 23 138 12 0 -10 -43 -121 -49 -129 -4 -4
-28 -4 -53 -1 -45 6 -46 7 -53 50 -9 60 -23 56 -17 -5 2 -30 0 -51 -7 -55 -6
-4 -11 0 -11 10 0 29 -23 94 -31 88 -5 -2 -4 -16 1 -30 15 -39 12 -53 -10 -47
-22 6 -104 129 -95 143 7 12 49 -3 83 -30z m452 -167 c7 -27 14 -52 15 -58 2
-5 14 -49 27 -97 l25 -86 -21 -6 c-67 -20 -401 -14 -422 6 -2 3 6 49 19 104
20 91 26 104 60 133 l37 33 47 -16 c44 -15 48 -15 67 2 36 32 47 35 61 16 13
-18 15 -18 36 3 12 12 26 20 30 18 3 -3 12 -26 19 -52z m-302 19 c5 -15 -35
-34 -58 -27 -27 9 -25 33 3 37 33 6 50 3 55 -10z m93 -302 c1 -3 2 -38 3 -79
2 -85 -9 -110 -42 -92 -17 9 -22 21 -22 51 0 22 0 41 0 43 -1 1 -5 19 -9 39
-5 20 -6 40 -3 43 7 7 72 3 73 -5z m55 -3 c12 -12 43 -172 36 -179 -4 -4 -22
-2 -40 4 l-32 12 0 87 c0 71 3 87 15 85 8 -1 18 -5 21 -9z m114 -83 c0 -83 -2
-94 -17 -94 -29 0 -40 13 -48 55 -5 22 -9 45 -11 50 -1 6 -5 26 -9 45 l-6 35
45 2 46 2 0 -95z m-112 -113 c42 -23 25 -34 -41 -28 -73 7 -97 15 -97 31 0 16
108 13 138 -3z m185 -6 c33 -14 17 -25 -35 -24 -63 1 -100 10 -105 26 -4 12
110 11 140 -2z"/>
<path d="M986 1397 c-16 -12 -14 -13 18 -13 38 0 47 10 20 20 -20 8 -17 8 -38
-7z"/>
<path d="M791 1387 c-8 -11 -4 -13 24 -13 37 1 45 10 19 20 -23 9 -30 8 -43
-7z"/>
<path d="M980 1260 c-11 -7 -3 -10 30 -10 33 0 41 3 30 10 -8 5 -22 10 -30 10
-8 0 -22 -5 -30 -10z"/>
<path d="M785 1250 c-3 -5 0 -10 7 -10 7 0 24 -3 38 -6 17 -5 22 -3 15 4 -16
16 -53 24 -60 12z"/>
<path d="M836 1144 c-3 -7 3 -23 13 -35 23 -28 63 -20 79 16 7 14 12 27 12 29
0 1 -22 3 -50 3 -31 0 -51 -5 -54 -13z m72 -16 c-3 -7 -15 -13 -28 -13 -13 0
-25 6 -27 13 -3 8 6 12 27 12 21 0 30 -4 28 -12z"/>
</g>
</svg>
